<svg width="42" height="33" viewBox="0 0 42 33" fill="none" xmlns="http://www.w3.org/2000/svg">
<path d="M33.5387 2.38093C32.093 3.06381 30.705 3.71623 29.208 4.42303C29.4389 3.88369 29.625 3.50093 30.0698 3.25736C31.6738 2.3831 33.2629 1.47623 34.9588 0.523682C34.4755 4.83841 34.005 9.05963 33.5259 13.3417C29.9501 13.9855 26.4042 14.7532 23.4037 17.0345C22.7899 15.1946 22.2381 13.3874 21.5858 11.6193C20.9292 9.84037 20.1914 8.09186 19.4514 6.34552C18.72 4.62094 17.6956 3.03988 16.8679 1.36097C16.9449 1.29137 17.0198 1.22396 17.0968 1.15436C17.3256 1.2979 17.5908 1.40229 17.7747 1.58932C18.7286 2.55056 19.6375 3.56183 20.6106 4.5035C22.1761 6.02148 24.4323 6.07803 26.0684 4.60571C27.0351 3.73581 27.8927 2.73977 28.8273 1.83071C29.0433 1.62194 29.3705 1.5306 29.6464 1.38706C29.5822 1.6937 29.5951 2.04384 29.4432 2.29611C27.6981 5.21682 26.3529 8.32673 25.1873 11.5193C24.6933 12.8742 24.2548 14.2508 23.795 15.6187C23.7373 15.7905 23.7009 15.971 23.7394 16.2146C24.0239 15.9101 24.2826 15.5709 24.5992 15.3077C26.5603 13.6832 28.8508 12.7915 31.2953 12.2739C32.555 12.0064 32.5293 12.0282 32.6555 10.7385C32.8886 8.3724 33.1602 6.01279 33.4126 3.64882C33.4553 3.25084 33.4874 2.85285 33.5323 2.38093H33.5387Z" fill="#319FD8"/>
<path d="M9.36572 9.89038C11.8102 10.8799 21.5325 18.4176 22.5249 20.0357C26.0793 19.2179 29.1868 20.4467 32.2044 22.1147C32.3349 22.1865 32.4589 22.267 32.6236 22.367C34.9291 20.1379 37.2346 17.9087 39.5914 15.6296C38.4857 15.236 37.442 14.8662 36.4005 14.4944C36.3855 14.44 36.3705 14.3856 36.3534 14.3312C36.516 14.266 36.6913 14.1181 36.8368 14.1442C38.4814 14.453 40.1217 14.7879 41.8519 15.1316C38.7466 18.111 35.6862 21.0491 32.6001 24.0089C31.7553 23.5457 30.9148 23.0847 30.0722 22.628C27.7539 21.3644 25.303 20.5337 22.6746 20.2662C22.5655 20.2553 22.4329 20.2336 22.3581 20.1661C20.9465 18.8896 19.2035 18.3502 17.4349 17.8848C14.5798 17.1367 11.6648 16.8083 8.71985 16.7713C7.64196 16.7583 6.5598 16.8453 5.48192 16.8105C4.18376 16.7692 2.90698 16.5386 1.70719 16.0145C1.4142 15.8862 1.18108 15.6144 0.920166 15.4099C1.23669 15.349 1.55107 15.2403 1.86759 15.2316C3.35396 15.1881 4.85957 15.386 6.30958 14.8945C7.38532 14.5292 8.43113 14.0833 9.2096 13.2025C10.0544 12.2457 10.1335 11.4236 9.56034 10.2797C9.51115 10.1796 9.45982 10.0796 9.36358 9.89038H9.36572Z" fill="#319FD8"/>
<path d="M16.3551 3.39209C19.0498 8.22224 21.2184 13.2916 22.9806 18.5154C25.1022 17.1192 27.5488 16.9735 30.0403 17.1127C31.0284 17.1692 32.01 17.3432 33.0601 17.4715C34.4802 14.6661 35.9302 11.7997 37.4251 8.84205H34.3775C34.3497 8.79855 34.3219 8.75506 34.292 8.71156C34.3946 8.58325 34.4823 8.35708 34.6 8.33968C36.1548 8.0961 37.7138 7.8808 39.3521 7.64593C39.258 7.86123 39.2045 8.00911 39.1318 8.15047C37.331 11.6779 35.5239 15.2011 33.7381 18.7372C33.5499 19.1091 33.3189 19.07 33.0067 19.0134C30.8338 18.6198 28.6545 18.2109 26.4346 18.361C25.346 18.4349 24.2681 18.6459 23.1859 18.7981C23.0255 18.8199 22.8673 18.8568 22.7069 18.8873C21.9006 16.6538 20.2902 15.0945 18.6135 13.5983C16.0685 11.3278 13.2348 9.501 10.2 7.97432C8.80776 7.27404 7.61438 6.2693 6.61135 5.04709C6.55789 4.98184 6.48945 4.92095 6.46165 4.84701C6.36969 4.59473 6.29483 4.33811 6.21143 4.08366C6.45951 4.15326 6.73112 4.17935 6.95354 4.30332C8.24529 5.02099 9.46646 5.88872 10.9293 6.23451C12.0863 6.50853 13.2583 6.63466 14.4239 6.278C15.7092 5.88437 16.3102 4.98402 16.2353 3.61827C16.231 3.55955 16.2353 3.49865 16.2353 3.43993C16.2759 3.42471 16.3187 3.41166 16.3594 3.39644L16.3551 3.39209Z" fill="#319FD8"/>
<path d="M41.5418 27.112V32.2923H40.3549C40.1709 31.1114 39.9827 29.8914 39.7945 28.6735C39.7731 28.6735 39.7496 28.6735 39.7282 28.6735V32.3119H39.0695V27.0794C39.3946 27.0794 39.7218 27.0533 40.0426 27.0946C40.1495 27.1077 40.2971 27.286 40.3185 27.4078C40.5153 28.5517 40.6885 29.7 40.9066 30.8505V27.1099H41.5418V27.112Z" fill="#319FD8"/>
<path d="M7.65735 32.3598V27.1708C8.55772 26.899 9.47307 27.0903 9.69121 27.5927C9.99918 28.2973 9.78531 29.2499 9.25279 29.55C9.79387 29.9741 10.0355 31.0354 9.70191 31.7661C9.26134 32.723 8.39519 32.1945 7.65949 32.3598H7.65735ZM8.53206 29.8936V31.7465C9.16938 31.5617 8.94268 31.0658 8.95979 30.7091C8.97476 30.4069 9.11164 29.9762 8.53206 29.8936ZM8.52351 29.3651C9.18007 28.9889 8.85286 28.4517 8.9106 28.032C8.92343 27.9298 8.73523 27.8015 8.63899 27.684C8.6005 27.7123 8.562 27.7428 8.52351 27.771V29.3651Z" fill="#319FD8"/>
<path d="M10.9484 22.7478C10.9484 23.322 10.957 23.8939 10.9463 24.4681C10.9313 25.1597 10.5998 25.4446 9.8449 25.438C9.11989 25.4315 8.81193 25.1466 8.80979 24.4616C8.80551 23.2981 8.80551 22.1346 8.80979 20.9711C8.81193 20.3012 9.14342 19.9946 9.85131 19.9859C10.5785 19.9772 10.9335 20.2904 10.9463 20.9754C10.957 21.5648 10.9484 22.1563 10.9484 22.7457V22.7478ZM10.1122 22.7413C10.1122 22.1694 10.1251 21.5974 10.1015 21.0276C10.0951 20.8971 9.96466 20.7732 9.88981 20.6448C9.79785 20.7601 9.62889 20.8732 9.62675 20.9885C9.60751 22.1476 9.60751 23.3068 9.62675 24.4659C9.62675 24.579 9.80426 24.6899 9.9005 24.803C9.97108 24.6877 10.0973 24.5725 10.1015 24.4529C10.1229 23.8831 10.1101 23.3111 10.1122 22.7391V22.7413Z" fill="#319FD8"/>
<path d="M14.5029 29.757C14.5029 30.3638 14.5093 30.9705 14.5029 31.5773C14.4965 32.1079 14.2142 32.3863 13.6667 32.432C12.8967 32.4972 12.4241 32.2667 12.407 31.7099C12.3685 30.3812 12.3728 29.0502 12.407 27.7236C12.4198 27.2386 12.9417 26.9407 13.5276 26.9842C14.1671 27.0298 14.4943 27.3278 14.5007 27.8889C14.5072 28.513 14.5007 29.135 14.5007 29.7592L14.5029 29.757ZM13.1983 29.7048C13.1983 30.2789 13.1833 30.8531 13.209 31.4272C13.2154 31.5577 13.3544 31.6817 13.4335 31.81C13.5234 31.6925 13.688 31.5751 13.6902 31.4555C13.7094 30.3072 13.7116 29.1589 13.6902 28.0107C13.6902 27.8932 13.5255 27.7758 13.4378 27.6605C13.3566 27.7845 13.2133 27.9063 13.2068 28.0346C13.1812 28.5913 13.1962 29.1481 13.1962 29.707L13.1983 29.7048Z" fill="#319FD8"/>
<path d="M13.5881 25.3118H12.7006C12.7006 24.6724 12.6963 24.0548 12.7006 23.4371C12.7049 23.1196 12.5936 22.9239 12.2151 22.9152V25.2944H11.396V20.1576C12.4632 19.9336 13.2802 20.1076 13.4641 20.5839C13.7164 21.2363 13.4641 22.2432 12.9444 22.5607C13.3849 22.6977 13.5154 23.0065 13.5133 23.4437C13.509 24.0483 13.5582 24.6528 13.586 25.314L13.5881 25.3118ZM12.2215 22.2736C13.0021 22.1127 12.615 21.5233 12.6899 21.1406C12.7583 20.797 12.5359 20.7143 12.2215 20.76V22.2736Z" fill="#319FD8"/>
<path d="M38.5778 29.7528C38.5778 30.3422 38.5863 30.9315 38.5756 31.5209C38.5628 32.1646 38.2441 32.4343 37.532 32.4365C36.7856 32.4365 36.4477 32.1646 36.4412 31.5122C36.4306 30.3161 36.4306 29.12 36.4412 27.9238C36.4477 27.304 36.8583 26.9648 37.5405 26.98C38.2163 26.9974 38.5649 27.3084 38.5756 27.9304C38.5863 28.5371 38.5778 29.1439 38.5756 29.7506L38.5778 29.7528ZM37.7565 29.7963C37.7565 29.2048 37.7694 28.6154 37.7458 28.0239C37.7415 27.8999 37.5961 27.7803 37.5149 27.6585C37.4272 27.7781 37.2646 27.8977 37.2625 28.0195C37.2432 29.1504 37.2411 30.2813 37.2625 31.4122C37.2646 31.547 37.4443 31.6775 37.5405 31.808C37.6132 31.6775 37.7437 31.5492 37.7501 31.4143C37.7736 30.875 37.7608 30.3356 37.7608 29.7941L37.7565 29.7963Z" fill="#319FD8"/>
<path d="M22.3018 27.0557C22.7958 27.0883 23.2428 27.0992 23.6834 27.1492C24.1026 27.197 24.3571 27.4689 24.3656 27.8908C24.3934 29.0717 24.4148 30.2526 24.3891 31.4335C24.3763 32.0489 24.0341 32.3229 23.4161 32.336C23.0546 32.3425 22.6932 32.336 22.3018 32.336V27.0557ZM23.1102 31.6705C23.461 31.7771 23.5722 31.5966 23.5743 31.316C23.5807 30.2526 23.5786 29.1891 23.5743 28.1256C23.5743 27.8168 23.4268 27.695 23.1102 27.7973V31.6705Z" fill="#319FD8"/>
<path d="M2.53015 20.1096C2.97927 20.1096 3.407 20.0704 3.82832 20.1183C4.37367 20.1813 4.61106 20.4684 4.61962 21.036C4.63459 22.1647 4.63459 23.2912 4.6239 24.4199C4.61962 24.9528 4.27743 25.3051 3.75988 25.329C3.36423 25.3486 2.96858 25.3333 2.53015 25.3333V20.1096ZM3.3407 24.6679C3.39417 24.7048 3.4455 24.7396 3.49896 24.7766C3.6059 24.6135 3.80051 24.4547 3.80479 24.2895C3.83259 23.2434 3.81976 22.1973 3.81976 21.1513C3.81976 20.8316 3.67006 20.7033 3.3407 20.7598V24.6657V24.6679Z" fill="#319FD8"/>
<path d="M2.92842 27.1036H3.73042C3.73042 27.7452 3.73042 28.3628 3.73042 28.9826C3.73042 29.7764 3.71545 30.568 3.74325 31.3597C3.74753 31.5119 3.91648 31.6576 4.01058 31.8055C4.0833 31.6598 4.2159 31.5141 4.21803 31.3683C4.23514 30.1374 4.22659 28.9065 4.22873 27.6734C4.22873 27.4929 4.22873 27.3124 4.22873 27.1058H5.02217C5.03714 27.2602 5.0628 27.419 5.0628 27.5777C5.06708 28.8435 5.0628 30.107 5.06708 31.3727C5.06708 31.7837 5.01361 32.1643 4.57947 32.3274C4.09185 32.5079 3.59569 32.5318 3.17009 32.1795C3.04605 32.0773 2.94126 31.8664 2.93912 31.7033C2.92201 30.1875 2.92842 28.6716 2.92842 27.1036Z" fill="#319FD8"/>
<path d="M24.8517 27.1036H25.6665C25.6665 27.9953 25.6665 28.8674 25.6665 29.7395C25.6665 30.2462 25.643 30.7529 25.6793 31.2574C25.6922 31.4466 25.8397 31.6271 25.9253 31.8098C26.0044 31.6293 26.1498 31.451 26.1541 31.2705C26.1755 30.0744 26.1648 28.8761 26.1648 27.6778C26.1648 27.4973 26.1648 27.3146 26.1648 27.1102H26.9732C26.9732 27.4103 26.9732 27.706 26.9732 28.004C26.9732 29.2023 26.9796 30.3984 26.9689 31.5967C26.9647 32.1099 26.6588 32.3883 26.1049 32.434C25.3714 32.4949 24.8795 32.2622 24.8666 31.7402C24.8303 30.2114 24.8538 28.6803 24.8538 27.1058L24.8517 27.1036Z" fill="#319FD8"/>
<path d="M15.8218 25.3223H15.0754C15.285 23.5738 15.4903 21.8514 15.6977 20.1137C15.8303 20.1028 15.9116 20.092 15.9907 20.0876C16.9253 20.0615 16.9403 20.0594 17.0579 20.9945C17.2354 22.4146 17.3915 23.8369 17.5605 25.2962H16.7393C16.6836 24.8656 16.6238 24.4198 16.5617 23.9457H16.0164C15.9522 24.398 15.8881 24.8438 15.8196 25.3179L15.8218 25.3223ZM16.3607 21.4773C16.3286 21.4751 16.2944 21.4708 16.2623 21.4686C16.2067 21.9905 16.1404 22.5125 16.1105 23.0344C16.1062 23.0997 16.3051 23.178 16.5019 23.3128C16.4463 22.5973 16.4056 22.0384 16.3628 21.4773H16.3607Z" fill="#319FD8"/>
<path d="M30.7622 30.9616C30.6938 31.4074 30.6275 31.851 30.5569 32.3143H29.8212C30.0287 30.5614 30.234 28.839 30.4393 27.1057H31.684C31.8914 28.8368 32.0968 30.5527 32.3063 32.3056H31.4894C31.4487 32.0185 31.3675 31.7075 31.3696 31.3987C31.3718 30.9877 31.222 30.8376 30.7622 30.9637V30.9616ZM31.098 30.2504C31.1408 30.2178 31.1857 30.183 31.2285 30.1504C31.1814 29.5915 31.1344 29.0304 31.0873 28.4715C30.9419 28.9651 30.882 29.4479 30.8649 29.9307C30.8606 30.0329 31.0167 30.1439 31.098 30.2504Z" fill="#319FD8"/>
<path d="M29.5543 29.0044H28.7181C28.7181 28.6673 28.7394 28.3367 28.7074 28.0105C28.6945 27.8866 28.5534 27.7757 28.47 27.6604C28.3951 27.7713 28.2561 27.88 28.2561 27.991C28.2411 29.1566 28.2411 30.3201 28.2582 31.4858C28.2582 31.5945 28.4058 31.7011 28.4828 31.8098C28.5598 31.7011 28.6967 31.5945 28.7052 31.4793C28.7352 31.1313 28.7159 30.779 28.7159 30.3984H29.5457C29.5457 30.8616 29.5863 31.3183 29.535 31.7642C29.4816 32.2144 29.1287 32.3883 28.7138 32.4297C28.0294 32.4971 27.6145 32.3144 27.4648 31.8664C27.4135 31.7098 27.3878 31.5358 27.3878 31.3705C27.3814 30.2723 27.3814 29.1762 27.3857 28.078C27.3857 27.6734 27.4584 27.2863 27.8818 27.1167C28.3523 26.9253 28.8357 26.9079 29.2527 27.2341C29.4024 27.3516 29.5201 27.5886 29.5436 27.7844C29.5885 28.1649 29.5564 28.5564 29.5564 29.0066L29.5543 29.0044Z" fill="#319FD8"/>
<path d="M33.8658 30.392H34.7149C34.7149 30.853 34.7512 31.2901 34.7063 31.7186C34.6507 32.2275 34.2165 32.4667 33.5151 32.4341C32.9312 32.408 32.5719 32.1296 32.5655 31.6164C32.5463 30.3506 32.5441 29.0849 32.5676 27.8192C32.5783 27.2929 32.9997 26.9906 33.622 26.9798C34.2593 26.9689 34.6849 27.2864 34.7213 27.8301C34.7448 28.1976 34.7255 28.5673 34.7255 28.9805H33.8765V27.7344C33.5215 27.5713 33.3974 27.7105 33.3953 28.0084C33.391 29.1567 33.3868 30.3028 33.406 31.4511C33.406 31.5707 33.5707 31.6881 33.6605 31.8056C33.7289 31.6903 33.8487 31.5772 33.8573 31.4576C33.8851 31.1249 33.8658 30.7878 33.8658 30.392Z" fill="#319FD8"/>
<path d="M14.8998 4.4381C14.8934 5.26669 14.2283 5.94956 13.4156 5.96044C12.5623 5.97349 11.8052 5.25146 11.8095 4.4294C11.8137 3.5073 12.4917 2.82878 13.3899 2.844C14.2775 2.85922 14.9062 3.52253 14.8998 4.4381Z" fill="#319FD8"/>
<path d="M5.7814 12.0805C5.80492 11.2519 6.51495 10.5907 7.364 10.606C8.21091 10.6212 8.87389 11.3454 8.84823 12.2262C8.82256 13.0983 8.12964 13.742 7.24637 13.7159C6.38663 13.692 5.75573 12.9852 5.7814 12.0783V12.0805Z" fill="#319FD8"/>
<path d="M24.8687 3.6142C24.8687 4.51672 24.2164 5.17568 23.3289 5.16698C22.4991 5.16045 21.8383 4.46888 21.8404 3.60767C21.8404 2.74647 22.5098 2.04837 23.331 2.05054C24.2186 2.05272 24.8687 2.71385 24.8687 3.6142Z" fill="#319FD8"/>
<path d="M1.17663 30.3983V32.3056H0.370361V27.1601C1.44397 26.8622 2.32082 27.1753 2.46838 27.9148C2.7849 29.4936 2.43844 30.2004 1.1745 30.3983H1.17663ZM1.39264 27.7495C1.32848 27.7691 1.26432 27.7886 1.20016 27.8082V29.6568C1.52951 29.7459 1.69205 29.6002 1.64286 29.3088C1.55518 28.7934 1.91661 28.154 1.39264 27.7495Z" fill="#319FD8"/>
<path d="M20.1341 27.1036H21.9434V27.7626H20.9981V29.0848C21.2826 29.1001 21.5584 29.1153 21.8857 29.1327C21.8963 29.3393 21.907 29.5307 21.922 29.7873H20.996V31.6185C21.3189 31.6358 21.6269 31.6511 21.9541 31.6663V32.31H20.1341V27.1036Z" fill="#319FD8"/>
<path d="M0.393921 20.1161H2.17328V20.762H1.2173V22.0864C1.50602 22.1038 1.79474 22.1212 2.10912 22.1408V22.7954H1.22372V24.6179H2.17756V25.3094H0.396059V20.1161H0.393921Z" fill="#319FD8"/>
<path d="M5.55286 27.1103H7.32581V27.7519C7.00287 27.7693 6.6949 27.7845 6.35699 27.8019V29.0807C6.65641 29.0959 6.96223 29.1111 7.28731 29.1285V29.7766C6.9879 29.7918 6.6949 29.807 6.36341 29.8244V31.6121C6.67565 31.6295 6.98362 31.6469 7.32153 31.6643V32.3037H5.55072V27.1082L5.55286 27.1103Z" fill="#319FD8"/>
<path d="M18.5592 27.1317C18.1465 28.8541 17.4963 30.4982 17.7615 32.3142C17.5562 32.325 17.445 32.3359 17.3316 32.3337C17.2033 32.3337 17.075 32.3229 16.8611 32.312C17.1349 30.5026 16.4484 28.8628 16.0677 27.1795C16.7906 26.9599 16.8718 27.0012 17.0322 27.6428C17.09 27.8711 17.137 28.0995 17.1883 28.33C17.2354 28.5409 17.2803 28.7519 17.3359 29.0107C17.4428 28.5409 17.5348 28.119 17.6375 27.6993C17.8021 27.0317 17.8064 27.0317 18.5592 27.1339V27.1317Z" fill="#319FD8"/>
<path d="M6.94432 20.8011C6.66201 20.7881 6.48023 20.7794 6.26208 20.7685V20.1161H8.47559V20.7511C8.28739 20.7685 8.07994 20.7881 7.80833 20.8142V25.3116H6.94645V20.8011H6.94432Z" fill="#319FD8"/>
<path d="M10.2491 32.295V27.1212H11.0725V31.6186H12.0819C12.0947 31.8666 12.1033 32.0579 12.114 32.295H10.2491Z" fill="#319FD8"/>
<path d="M17.886 25.2939V20.1136H18.6688V24.6285H19.6889V25.2961H17.886V25.2939Z" fill="#319FD8"/>
<path d="M35.9549 27.1212V32.3059H35.1786V27.1212H35.9549Z" fill="#319FD8"/>
<path d="M13.9998 20.1161H14.7505V25.3029H13.9998V20.1161Z" fill="#319FD8"/>
<path d="M5.89052 25.3202H5.12274V20.1182H5.89052V25.3202Z" fill="#319FD8"/>
<path d="M38.524 25.5662C37.9573 25.9881 37.8247 26.7297 37.0441 26.8123C37.5231 25.6031 37.6258 25.5096 38.524 25.5662Z" fill="#319FD8"/>
</svg>
