<svg width="37" height="37" viewBox="0 0 37 37" fill="none" xmlns="http://www.w3.org/2000/svg">
<g id="Icon m /4">
<path id="Vector" d="M18.5001 0C28.7192 0 37 8.28085 37 18.5V37H18.5001C8.28091 37 0 28.7192 0 18.5C0 8.28085 8.28091 0 18.5001 0Z" fill="#EBEBEB"/>
<path id="Vector_2" d="M12.9646 22.0234H6.35352V16.1473C6.35352 14.5878 6.97301 13.0923 8.07572 11.9895C9.17843 10.8868 10.674 10.2673 12.2335 10.2673H18.9293C20.4174 10.2658 21.8506 10.8297 22.9387 11.845C24.0268 12.8602 24.6885 14.2509 24.79 15.7356M18.8292 15.7356H25.525C27.0845 15.7356 28.5801 16.3551 29.6828 17.4578C30.7855 18.5605 31.405 20.0561 31.405 21.6155V27.4763H18.8292C17.2731 27.4763 15.7804 26.8594 14.6782 25.7609C13.5761 24.6623 12.9543 23.1717 12.9493 21.6155C12.9493 20.0561 13.5687 18.5605 14.6715 17.4578C15.7742 16.3551 17.2698 15.7356 18.8292 15.7356Z" stroke="#474747" stroke-width="2" stroke-miterlimit="10"/>
</g>
</svg>
