<svg width="61" height="60" viewBox="0 0 61 60" fill="none" xmlns="http://www.w3.org/2000/svg">
<path d="M30.6095 0C47.1811 0 60.6094 13.4284 60.6094 30V60H30.6095C14.0379 60 0.609375 46.5716 0.609375 30C0.609375 13.4284 14.0379 0 30.6095 0Z" fill="#EBEBEB"/>
<path d="M16.7617 28.7089C17.2394 31.9909 18.8827 34.9912 21.3911 37.161C23.8995 39.3307 27.1052 40.5248 30.4217 40.5248M30.4217 40.5248C33.7383 40.5248 36.944 39.3307 39.4524 37.161C41.9608 34.9912 43.6041 31.9909 44.0818 28.7089M30.4217 40.5248V47.4375M30.4237 12.9375C28.8552 12.9375 27.3508 13.5606 26.2417 14.6698C25.1325 15.7789 24.5094 17.2832 24.5094 18.8518V26.7375C24.5094 28.3061 25.1325 29.8104 26.2417 30.9195C27.3508 32.0287 28.8552 32.6518 30.4237 32.6518C31.9923 32.6518 33.4966 32.0287 34.6057 30.9195C35.7149 29.8104 36.338 28.3061 36.338 26.7375V18.8518C36.338 17.2832 35.7149 15.7789 34.6057 14.6698C33.4966 13.5606 31.9923 12.9375 30.4237 12.9375Z" stroke="#319FD8" stroke-width="3" stroke-linecap="round" stroke-linejoin="round"/>
</svg>
