<svg width="60" height="60" viewBox="0 0 60 60" fill="none" xmlns="http://www.w3.org/2000/svg">
<g id="Icono /1">
<path id="Vector" d="M30.0001 0C46.5717 0 60 13.4284 60 30V60H30.0001C13.4285 60 0 46.5716 0 30C0 13.4284 13.4285 0 30.0001 0Z" fill="#474747"/>
<g id="notification-box">
<path id="Vector_2" d="M43.6715 21.8635C45.3979 26.0236 47.1244 30.1651 48.8509 34.2878C49.5435 35.954 48.4328 37.4079 46.6481 37.1521C45.4811 36.9836 44.3204 36.7652 43.1535 36.5717C40.3204 36.11 37.4874 35.6544 34.6481 35.1739C34.4651 35.1492 34.2789 35.1773 34.1114 35.2551C31.9148 36.1724 29.7432 37.1271 27.5154 38.0008C27.1161 38.163 27.0911 38.3315 27.2471 38.6934C28.4577 41.5639 29.6579 44.4407 30.8477 47.3237C31.1704 48.0018 31.2582 48.768 31.0974 49.5015C30.9321 50.0082 30.6261 50.4575 30.215 50.7967C29.8039 51.1359 29.3048 51.3512 28.776 51.4173C28.2781 51.4476 27.7823 51.3314 27.3498 51.0829C26.9172 50.8345 26.567 50.4648 26.3423 50.0195C25.0942 46.8994 23.7339 43.7792 22.4546 40.6154C22.4324 40.5348 22.3943 40.4595 22.3424 40.3939C22.2905 40.3283 22.226 40.2738 22.1527 40.2336C22.0793 40.1935 21.9987 40.1684 21.9155 40.1601C21.8322 40.1517 21.7482 40.1601 21.6683 40.1848C20.4518 40.4358 19.1944 40.409 17.9897 40.1065C16.785 39.8039 15.6641 39.2335 14.7105 38.4376C13.3047 37.3365 12.3039 35.8002 11.8649 34.0694C11.431 32.5773 11.4008 30.9967 11.7775 29.4891C12.2819 27.5473 13.4666 25.851 15.1161 24.709C16.0328 24.0899 17.0194 23.5809 18.0552 23.1926C20.9569 22.0008 23.8337 20.6965 26.7604 19.5983C27.6074 19.2014 28.3066 18.5459 28.7573 17.7262C30.7916 14.837 32.8197 11.9415 34.8665 9.05848C35.0684 8.72803 35.3609 8.46252 35.7094 8.29352C36.0578 8.12452 36.4474 8.05913 36.8319 8.10514C37.2165 8.15115 37.5797 8.30662 37.8784 8.55306C38.1771 8.7995 38.3988 9.12654 38.517 9.4953C40.2206 13.6263 41.9491 17.7449 43.6715 21.8635ZM36.1832 14.1755C36.0991 14.2238 36.0215 14.2825 35.9523 14.3502C34.3735 16.5842 32.776 18.812 31.2346 21.071C30.7426 21.8615 30.0162 22.4789 29.1566 22.837C26.0365 24.085 22.9601 25.3892 19.8711 26.6934C19.1482 26.9684 18.4473 27.298 17.7744 27.6794C17.0146 28.1141 16.3933 28.755 15.9825 29.528C15.5717 30.3011 15.3882 31.1746 15.453 32.0476C15.4841 32.892 15.7594 33.7094 16.2457 34.4005C16.7319 35.0917 17.4082 35.627 18.1925 35.9415C18.8172 36.2314 19.4976 36.3816 20.1863 36.3816C20.875 36.3816 21.5553 36.2314 22.18 35.9415C25.9242 34.4022 29.6683 32.8422 33.4125 31.2613C33.8475 31.0997 34.3198 31.0672 34.7729 31.1677C37.581 31.6482 40.3891 32.1037 43.2159 32.553C43.9148 32.6653 43.9211 32.6466 43.634 31.929L36.4328 14.7246L36.1832 14.1755Z" fill="#EBEBEB"/>
</g>
</g>
</svg>
