<svg width="218" height="34" viewBox="0 0 218 34" fill="none" xmlns="http://www.w3.org/2000/svg">
<rect width="218" height="34" fill="#838383"/>
<g clip-path="url(#clip0_0_1)">
<rect width="360" height="1733" transform="translate(-71 -1143)" fill="#F2F2F2"/>
<rect x="-71" y="-23" width="360" height="613" fill="#474747"/>
<g clip-path="url(#clip1_0_1)">
<path d="M63.439 0V33.6926H52.2975C50.3971 33.6409 48.6325 33.0835 47.0047 32.0175C45.3757 30.9529 44.0811 29.5209 43.1181 27.7242C42.1552 25.9792 41.6744 24.0917 41.6744 22.0631C41.6744 20.0345 42.1619 18.1163 43.1369 16.3839C44.1119 14.6515 45.4375 13.2711 47.1162 12.2442C48.7936 11.2425 50.608 10.7424 52.5567 10.7424C53.7412 10.7424 54.8948 10.9421 56.0176 11.3389C57.1403 11.7371 58.1583 12.2959 59.0715 13.0141V2.29824C59.0715 1.02967 60.06 0 61.2808 0H63.439ZM59.0715 29.1492V22.0645C59.0715 21.1662 58.905 20.307 58.5719 19.4841C58.2389 18.6626 57.7635 17.9305 57.147 17.2892C56.5306 16.6479 55.8269 16.1534 55.0372 15.8069C54.2475 15.4604 53.4202 15.2871 52.5567 15.2871C51.6931 15.2871 50.8659 15.4604 50.0762 15.8069C49.2865 16.1534 48.5828 16.6479 47.9663 17.2892C47.3499 17.9305 46.8745 18.6626 46.5414 19.4841C46.2084 20.3056 46.0418 21.1662 46.0418 22.0645C46.0418 23.0145 46.2137 23.945 46.5602 24.8559C46.9054 25.7668 47.3741 26.5311 47.9663 27.1472C48.5828 27.7885 49.2865 28.283 50.0762 28.6295C50.8659 28.976 51.6918 29.1492 52.5567 29.1492H59.0715Z" fill="white"/>
<path d="M68.8136 10.9743H71.0094V22.2951C71.0094 23.2185 71.1759 24.0917 71.509 24.9132C71.8421 25.7347 72.3175 26.4668 72.9339 27.1081C73.5504 27.7494 74.2541 28.2439 75.0438 28.5904C75.8334 28.9369 76.6728 29.1101 77.5605 29.1101H84.0015V13.2725C84.0015 12.004 84.99 10.9743 86.2107 10.9743H88.4065V33.6927H77.5619C75.5635 33.6927 73.7249 33.1855 72.0462 32.1712C70.3675 31.1569 69.0486 29.778 68.0857 28.0316C67.0986 26.3117 66.6057 24.3991 66.6057 22.2937V13.2711C66.6057 12.0026 67.5942 10.9729 68.815 10.9729L68.8136 10.9743Z" fill="white"/>
<path d="M112.77 29.1101V33.6926H101.628C99.728 33.641 97.9512 33.0765 96.298 31.998C94.6447 30.9194 93.3367 29.4957 92.3737 27.7242C91.4108 25.9527 90.93 24.054 90.93 22.0254C90.93 19.9968 91.4175 18.073 92.3925 16.3266C93.3676 14.5816 94.6931 13.1943 96.3718 12.1674C98.0492 11.1657 99.8757 10.6655 101.85 10.6655C103.824 10.6655 105.649 11.1727 107.328 12.187C109.005 13.2013 110.339 14.5816 111.326 16.3266C112.289 18.0464 112.77 19.9465 112.77 22.0254H108.402C108.402 21.1271 108.236 20.2609 107.903 19.4268C107.57 18.5927 107.094 17.855 106.478 17.2124C105.861 16.5711 105.151 16.0765 104.349 15.73C103.547 15.3836 102.715 15.2103 101.851 15.2103C100.124 15.2103 98.5811 15.8781 97.2246 17.2124C96.6082 17.8536 96.1381 18.5927 95.8185 19.4268C95.4975 20.2609 95.3377 21.1271 95.3377 22.0254C95.3377 22.9237 95.5043 23.8808 95.8373 24.8168C96.1704 25.7543 96.6337 26.5297 97.226 27.1458C98.5582 28.4549 100.1 29.1101 101.853 29.1101H112.772H112.77Z" fill="white"/>
<path d="M132.398 10.9742V13.2068C131.484 12.4887 130.466 11.9368 129.344 11.5526C128.22 11.167 127.055 10.9742 125.845 10.9742C123.871 10.9742 122.044 11.4744 120.367 12.4761C118.688 13.5044 117.364 14.8889 116.389 16.6353C115.414 18.3817 114.927 20.2804 114.927 22.3341C114.927 24.3879 115.407 26.2097 116.372 27.9561C117.333 29.6759 118.635 31.0493 120.276 32.0761C121.917 33.1044 123.7 33.6437 125.625 33.694H136.766V10.9742H132.399H132.398ZM132.398 29.1115H125.845C124.094 29.1115 122.552 28.4562 121.219 27.1472C119.96 25.7626 119.332 24.1573 119.332 22.3341C119.332 21.4358 119.491 20.5696 119.812 19.7355C120.132 18.9014 120.601 18.1638 121.219 17.5211C122.576 16.1868 124.118 15.519 125.845 15.519C126.709 15.519 127.543 15.6909 128.344 16.0388C129.146 16.3852 129.855 16.8798 130.473 17.5211C131.088 18.1638 131.565 18.9014 131.897 19.7355C132.23 20.5696 132.398 21.4358 132.398 22.3341V29.1115Z" fill="white"/>
<path d="M161.745 29.1101V33.6926H150.603C148.703 33.641 146.926 33.0765 145.273 31.998C143.62 30.9194 142.312 29.4957 141.349 27.7242C140.386 25.9527 139.905 24.054 139.905 22.0254C139.905 19.9968 140.392 18.073 141.367 16.3266C142.343 14.5816 143.668 13.1943 145.347 12.1674C147.024 11.1657 148.851 10.6655 150.825 10.6655C152.799 10.6655 154.624 11.1727 156.303 12.187C157.98 13.2013 159.314 14.5816 160.301 16.3266C161.264 18.0464 161.745 19.9465 161.745 22.0254H157.377C157.377 21.1271 157.211 20.2609 156.878 19.4268C156.545 18.5927 156.069 17.855 155.453 17.2124C154.836 16.5711 154.126 16.0765 153.324 15.73C152.522 15.3836 151.69 15.2103 150.826 15.2103C149.099 15.2103 147.556 15.8781 146.2 17.2124C145.583 17.8536 145.113 18.5927 144.793 19.4268C144.472 20.2609 144.313 21.1271 144.313 22.0254C144.313 22.9237 144.479 23.8808 144.812 24.8168C145.145 25.7543 145.609 26.5297 146.201 27.1458C147.533 28.4549 149.075 29.1101 150.828 29.1101H161.747H161.745Z" fill="white"/>
<path d="M167.375 2.38342C168.649 2.38342 169.682 3.4578 169.682 4.78365V7.18388H167.375C166.1 7.18388 165.067 6.10951 165.067 4.78365C165.067 3.4578 166.1 2.38342 167.375 2.38342ZM165.314 33.6926H169.682V10.9742H165.314V33.6926Z" fill="white"/>
<path d="M188.56 12.2065C190.226 13.2334 191.552 14.6319 192.54 16.4034C193.503 18.2001 193.983 20.1644 193.983 22.295V22.3341C193.983 24.4647 193.503 26.4165 192.54 28.1866C191.577 29.9581 190.256 31.3706 188.579 32.4226C186.9 33.476 185.063 34.0014 183.063 34.0014C181.064 34.0014 179.263 33.4886 177.585 32.4617C175.907 31.4349 174.588 30.0238 173.625 28.2257C172.638 26.4807 172.145 24.5164 172.145 22.3341V22.295C172.145 20.1644 172.626 18.2071 173.589 16.423C174.552 14.6388 175.884 13.2334 177.587 12.2065C179.24 11.1796 181.078 10.6669 183.102 10.6669C185.126 10.6669 186.896 11.181 188.562 12.2065H188.56ZM189.726 22.3341C189.726 20.2301 189.072 18.4963 187.764 17.1355C186.456 15.7747 184.889 15.0943 183.063 15.0943C181.238 15.0943 179.67 15.7747 178.363 17.1355C177.056 18.4963 176.438 20.2035 176.438 22.3341C176.438 24.4647 177.08 26.1985 178.363 27.5327C178.979 28.174 179.695 28.6686 180.51 29.0151C181.324 29.3616 182.176 29.5348 183.065 29.5348C183.954 29.5348 184.804 29.3616 185.619 29.0151C186.433 28.6686 187.149 28.174 187.767 27.5327C189.075 26.172 189.729 24.4396 189.729 22.3341H189.726Z" fill="white"/>
<path d="M218 33.6926H213.595V22.3327C213.595 21.4344 213.428 20.5682 213.095 19.7341C212.762 18.9 212.287 18.1624 211.671 17.5197C211.054 16.8784 210.35 16.3838 209.561 16.0374C208.771 15.6909 207.932 15.5176 207.044 15.5176H200.603V33.6926H196.198V10.9742H207.043C209.041 10.9742 210.879 11.4744 212.558 12.4761C214.236 13.4779 215.568 14.8638 216.556 16.6353C217.519 18.3552 218 20.2552 218 22.3341V33.694V33.6926Z" fill="white"/>
<path d="M7.52883 28.0567C7.72087 27.5551 8.0029 27.1122 8.37357 26.7252C9.19011 25.9233 10.1168 25.5223 11.1549 25.5223H37.0693C37.5877 25.5223 38.09 25.6257 38.5721 25.8339C39.0542 26.0421 39.48 26.3396 39.852 26.7252C40.2226 27.1108 40.5087 27.5551 40.7075 28.0567C40.9076 28.5583 41.0083 29.0794 41.0083 29.6187V33.6926H11.1549C10.102 33.6926 9.17533 33.2986 8.37357 32.5121C7.61746 31.6794 7.23874 30.7154 7.23874 29.6187C7.23874 29.0794 7.33543 28.5583 7.52748 28.0567H7.52883Z" fill="white"/>
<path d="M7.52883 2.53435C7.72087 2.03279 8.0029 1.58991 8.37357 1.20291C9.19011 0.40097 10.1168 0 11.1549 0H37.0693C37.589 0 38.0913 0.103386 38.5721 0.311555C39.0542 0.519724 39.48 0.817308 39.852 1.20291C40.2226 1.58851 40.5087 2.03279 40.7075 2.53435C40.9076 3.03591 41.0083 3.55703 41.0083 4.09632V8.17028H11.1549C10.102 8.17028 9.17533 7.7763 8.37357 6.98973C7.61746 6.15705 7.23874 5.19305 7.23874 4.09632C7.23874 3.55703 7.33543 3.03591 7.52748 2.53435H7.52883Z" fill="white"/>
<path d="M33.4795 15.2956C33.2874 14.794 33.0054 14.3511 32.6347 13.9641C31.8182 13.1622 30.8915 12.7612 29.8534 12.7612H3.939C3.4206 12.7612 2.91832 12.8646 2.43619 13.0728C1.95405 13.281 1.52833 13.5785 1.15632 13.9641C0.785651 14.3497 0.499593 14.794 0.30083 15.2956C0.100724 15.7971 0 16.3183 0 16.8576V20.9315H29.8534C30.9063 20.9315 31.833 20.5375 32.6347 19.751C33.3908 18.9183 33.7696 17.9543 33.7696 16.8576C33.7696 16.3183 33.6729 15.7971 33.4808 15.2956H33.4795Z" fill="#319FD8"/>
<path d="M179.157 2.63916H187.291C188.497 2.63916 189.475 3.65625 189.475 4.91086V7.18255H179.157C177.951 7.18255 176.973 6.16546 176.973 4.91086C176.973 3.65625 177.951 2.63916 179.157 2.63916Z" fill="white"/>
</g>
</g>
<defs>
<clipPath id="clip0_0_1">
<rect width="360" height="1733" fill="white" transform="translate(-71 -1143)"/>
</clipPath>
<clipPath id="clip1_0_1">
<rect width="218" height="34" fill="white"/>
</clipPath>
</defs>
</svg>
