<svg width="9" height="9" viewBox="0 0 9 9" fill="none" xmlns="http://www.w3.org/2000/svg">
<path id="Subtract" fill-rule="evenodd" clip-rule="evenodd" d="M4.5 9C6.98528 9 9 6.98528 9 4.5C9 2.01472 6.98528 0 4.5 0C2.01472 0 0 2.01472 0 4.5C0 6.98528 2.01472 9 4.5 9ZM4.8375 2.25C4.8375 2.0636 4.6864 1.9125 4.5 1.9125C4.3136 1.9125 4.1625 2.0636 4.1625 2.25V4.5C4.1625 4.64527 4.25546 4.77424 4.39327 4.82018L5.74327 5.27018C5.9201 5.32912 6.11124 5.23356 6.17018 5.05673C6.22912 4.8799 6.13356 4.68876 5.95673 4.62982L4.8375 4.25674V2.25Z" fill="#474747"/>
</svg>
