<svg width="78" height="61" viewBox="0 0 78 61" fill="none" xmlns="http://www.w3.org/2000/svg">
<g id="Group 202">
<path id="Vector" d="M62.3684 4.41112C59.6499 5.67386 57.04 6.88029 54.225 8.18726C54.6593 7.18995 55.0092 6.48217 55.8456 6.03177C58.8617 4.41515 61.8497 2.7382 65.0387 0.976807C64.1298 8.95536 63.2451 16.761 62.3443 24.6792C55.6204 25.8696 48.9529 27.2891 43.3108 31.5076C42.1566 28.1055 41.1191 24.7637 39.8926 21.4942C38.658 18.2047 37.2706 14.9714 35.8792 11.7422C34.5038 8.55322 32.5775 5.62962 31.0212 2.52506C31.166 2.39638 31.3068 2.27171 31.4515 2.14303C31.8818 2.40844 32.3805 2.60147 32.7263 2.94732C34.5199 4.7248 36.229 6.59477 38.0588 8.33606C41.0025 11.143 45.2451 11.2476 48.3215 8.52507C50.1392 6.91649 51.7518 5.07466 53.5092 3.3937C53.9153 3.00764 54.5306 2.83874 55.0494 2.57332C54.9288 3.14035 54.9529 3.7878 54.6674 4.25429C51.3859 9.65509 48.8564 15.4058 46.6647 21.3093C45.7357 23.8146 44.9113 26.3602 44.0467 28.8897C43.9381 29.2074 43.8698 29.5412 43.9422 29.9916C44.477 29.4286 44.9636 28.8012 45.5588 28.3146C49.2464 25.3106 53.5534 23.6618 58.1499 22.7047C60.5186 22.2101 60.4703 22.2503 60.7076 19.8656C61.1459 15.4902 61.6566 11.1269 62.1312 6.75563C62.2116 6.0197 62.2719 5.28378 62.3564 4.41112H62.3684Z" fill="#BABABA"/>
<path id="Vector_2" d="M16.9144 18.2972C21.5109 20.127 39.7924 34.0653 41.6583 37.0573C48.342 35.5452 54.1852 37.8174 59.8594 40.9018C60.1047 41.0345 60.338 41.1833 60.6476 41.3683C64.9827 37.2463 69.3179 33.1243 73.7495 28.9098C71.6704 28.182 69.7079 27.4983 67.7495 26.8106C67.7213 26.7101 67.6932 26.6096 67.661 26.509C67.9667 26.3884 68.2964 26.1149 68.5699 26.1632C71.6624 26.7342 74.7468 27.3535 78.0002 27.9889C72.161 33.4983 66.4063 38.9313 60.6034 44.4045C59.0149 43.5479 57.4345 42.6954 55.85 41.8509C51.4908 39.5144 46.8822 37.9782 41.9398 37.4836C41.7347 37.4635 41.4854 37.4233 41.3447 37.2986C38.6905 34.938 35.413 33.9407 32.0873 33.0801C26.7187 31.6967 21.2374 31.0895 15.6999 31.0211C13.6731 30.997 11.6382 31.1578 9.61141 31.0935C7.17039 31.0171 4.76959 30.5908 2.51355 29.6216C1.96262 29.3844 1.52428 28.8817 1.03366 28.5037C1.62884 28.3911 2.21999 28.19 2.81516 28.1739C5.61007 28.0935 8.44117 28.4594 11.1677 27.5506C13.1905 26.875 15.157 26.0506 16.6208 24.4219C18.2093 22.6525 18.3581 21.1324 17.2803 19.0171C17.1878 18.8321 17.0913 18.6471 16.9103 18.2972H16.9144Z" fill="#BABABA"/>
<path id="Vector_3" d="M30.0571 6.28088C35.1241 15.2125 39.2019 24.5865 42.5156 34.246C46.5048 31.6643 51.1054 31.3948 55.7904 31.6522C57.6483 31.7568 59.4941 32.0785 61.4686 32.3157C64.1389 27.1281 66.8654 21.8278 69.6764 16.3586H63.9459C63.8936 16.2782 63.8413 16.1978 63.785 16.1173C63.978 15.8801 64.1429 15.4619 64.3641 15.4297C67.2877 14.9793 70.2193 14.5812 73.2997 14.1468C73.1228 14.545 73.0223 14.8184 72.8855 15.0798C69.4995 21.6026 66.1014 28.1174 62.7434 34.6562C62.3896 35.3439 61.9552 35.2715 61.3681 35.167C57.2823 34.4391 53.1845 33.683 49.0102 33.9605C46.9633 34.0972 44.9365 34.4873 42.9016 34.7688C42.6 34.809 42.3024 34.8774 42.0008 34.9337C40.4847 30.8037 37.4566 27.9203 34.3038 25.1535C29.5182 20.9552 24.1898 17.5771 18.4834 14.7541C15.8654 13.4592 13.6214 11.6013 11.7354 9.34121C11.6348 9.22056 11.5062 9.10796 11.4539 8.97123C11.281 8.50475 11.1402 8.03021 10.9834 7.5597C11.4499 7.68839 11.9606 7.73665 12.3788 7.96587C14.8078 9.29295 17.104 10.8975 19.8547 11.5369C22.0303 12.0436 24.234 12.2769 26.4257 11.6173C28.8426 10.8895 29.9727 9.22458 29.8319 6.69911C29.8239 6.59054 29.8319 6.47794 29.8319 6.36936C29.9083 6.34121 29.9887 6.31708 30.0651 6.28893L30.0571 6.28088Z" fill="#BABABA"/>
<path id="Vector_4" d="M77.4173 50.1425V59.7216H75.1854C74.8395 57.5379 74.4856 55.2819 74.1317 53.0299C74.0915 53.0299 74.0473 53.0299 74.0071 53.0299V59.7578H72.7685V50.0822C73.3797 50.0822 73.995 50.0339 74.5982 50.1103C74.7993 50.1345 75.0768 50.4642 75.117 50.6894C75.487 52.8047 75.8127 54.928 76.2229 57.0554V50.1385H77.4173V50.1425Z" fill="#BABABA"/>
<path id="Vector_5" d="M13.7021 59.8464V50.2513C15.3951 49.7486 17.1163 50.1025 17.5265 51.0314C18.1055 52.3344 17.7034 54.0958 16.7021 54.6507C17.7195 55.4349 18.1739 57.3974 17.5466 58.7486C16.7181 60.518 15.0895 59.5408 13.7061 59.8464H13.7021ZM15.3468 55.2861V58.7124C16.5452 58.3706 16.1189 57.4537 16.1511 56.7942C16.1793 56.2352 16.4366 55.4389 15.3468 55.2861ZM15.3307 54.3089C16.5653 53.6132 15.95 52.6199 16.0586 51.8438C16.0828 51.6548 15.7289 51.4175 15.5479 51.2003C15.4755 51.2526 15.4031 51.3089 15.3307 51.3612V54.3089Z" fill="#BABABA"/>
<path id="Vector_6" d="M19.8905 42.0724C19.8905 43.1341 19.9066 44.1917 19.8865 45.2534C19.8583 46.5322 19.235 47.059 17.8154 47.0469C16.4521 47.0349 15.8731 46.5081 15.869 45.2413C15.861 43.0898 15.861 40.9384 15.869 38.7869C15.8731 37.5483 16.4964 36.9813 17.8275 36.9652C19.1948 36.9491 19.8623 37.5282 19.8865 38.7949C19.9066 39.8847 19.8905 40.9786 19.8905 42.0684V42.0724ZM18.3181 42.0603C18.3181 41.0027 18.3422 39.9451 18.298 38.8914C18.2859 38.6502 18.0406 38.4209 17.8999 38.1837C17.7269 38.3968 17.4093 38.6059 17.4052 38.8191C17.369 40.9625 17.369 43.1059 17.4052 45.2494C17.4052 45.4585 17.739 45.6636 17.92 45.8727C18.0527 45.6595 18.2899 45.4464 18.298 45.2252C18.3382 44.1716 18.3141 43.114 18.3181 42.0563V42.0603Z" fill="#BABABA"/>
<path id="Vector_7" d="M26.5741 55.0335C26.5741 56.1555 26.5862 57.2775 26.5741 58.3995C26.5621 59.3807 26.0312 59.8955 25.0017 59.9799C23.554 60.1006 22.6653 59.6743 22.6331 58.6448C22.5607 56.1877 22.5688 53.7266 22.6331 51.2735C22.6572 50.3767 23.6385 49.8258 24.7403 49.9062C25.9428 49.9906 26.558 50.5416 26.5701 51.5791C26.5822 52.7333 26.5701 53.8834 26.5701 55.0376L26.5741 55.0335ZM24.121 54.937C24.121 55.9987 24.0929 57.0604 24.1411 58.122C24.1532 58.3633 24.4146 58.5925 24.5634 58.8298C24.7323 58.6126 25.042 58.3955 25.046 58.1743C25.0822 56.051 25.0862 53.9276 25.046 51.8043C25.046 51.5872 24.7363 51.37 24.5714 51.1569C24.4186 51.3861 24.1492 51.6113 24.1371 51.8486C24.0889 52.878 24.117 53.9075 24.117 54.941L24.121 54.937Z" fill="#BABABA"/>
<path id="Vector_8" d="M24.8539 46.8135H23.185C23.185 45.6312 23.177 44.4891 23.185 43.3471C23.1931 42.7599 22.984 42.398 22.2722 42.3819V46.7814H20.732V37.2827C22.7387 36.8685 24.2749 37.1902 24.6207 38.0709C25.0952 39.2773 24.6207 41.1393 23.6435 41.7264C24.4719 41.9798 24.7172 42.5508 24.7132 43.3591C24.7052 44.4771 24.7976 45.595 24.8499 46.8176L24.8539 46.8135ZM22.2842 41.1956C23.7521 40.898 23.0242 39.8082 23.1649 39.1004C23.2936 38.465 22.8754 38.3122 22.2842 38.3966V41.1956Z" fill="#BABABA"/>
<path id="Vector_9" d="M71.8437 55.0257C71.8437 56.1155 71.8598 57.2053 71.8397 58.2951C71.8156 59.4854 71.2164 59.9841 69.8772 59.9881C68.4737 59.9881 67.8384 59.4854 67.8263 58.279C67.8062 56.0672 67.8062 53.8554 67.8263 51.6436C67.8384 50.4975 68.6105 49.8702 69.8933 49.8983C71.1641 49.9305 71.8196 50.5055 71.8397 51.6557C71.8598 52.7777 71.8437 53.8996 71.8397 55.0216L71.8437 55.0257ZM70.2995 55.1061C70.2995 54.0123 70.3236 52.9224 70.2794 51.8286C70.2713 51.5994 69.9979 51.3782 69.8451 51.153C69.6802 51.3742 69.3746 51.5954 69.3705 51.8206C69.3343 53.9117 69.3303 56.0029 69.3705 58.094C69.3746 58.3433 69.7124 58.5846 69.8933 58.8259C70.0301 58.5846 70.2754 58.3474 70.2874 58.098C70.3317 57.1007 70.3075 56.1034 70.3075 55.1021L70.2995 55.1061Z" fill="#BABABA"/>
<path id="Vector_10" d="M41.239 50.0383C42.1679 50.0987 43.0084 50.1188 43.8368 50.2113C44.625 50.2997 45.1036 50.8024 45.1197 51.5826C45.1719 53.7662 45.2121 55.9499 45.1639 58.1335C45.1398 59.2716 44.4963 59.7783 43.3341 59.8024C42.6545 59.8145 41.9749 59.8024 41.239 59.8024V50.0383ZM42.7591 58.5718C43.4186 58.7689 43.6277 58.4351 43.6317 57.9164C43.6438 55.9499 43.6398 53.9834 43.6317 52.0169C43.6317 51.4458 43.3542 51.2206 42.7591 51.4096V58.5718Z" fill="#BABABA"/>
<path id="Vector_11" d="M4.06097 37.194C4.90548 37.194 5.70977 37.1216 6.50199 37.2101C7.52746 37.3267 7.97384 37.8576 7.98993 38.9072C8.01808 40.9943 8.01808 43.0774 7.99797 45.1645C7.98993 46.1498 7.3465 46.8013 6.37331 46.8455C5.62934 46.8817 4.88537 46.8535 4.06097 46.8535V37.194ZM5.5851 45.623C5.68564 45.6913 5.78215 45.7557 5.88269 45.8241C6.08376 45.5224 6.44972 45.2289 6.45776 44.9232C6.51004 42.9889 6.48591 41.0546 6.48591 39.1203C6.48591 38.5291 6.20441 38.2919 5.5851 38.3964V45.619V45.623Z" fill="#BABABA"/>
<path id="Vector_12" d="M4.80995 50.127H6.318C6.318 51.3133 6.318 52.4554 6.318 53.6015C6.318 55.0693 6.28985 56.5331 6.34213 57.9969C6.35017 58.2784 6.66786 58.5479 6.84481 58.8213C6.98154 58.5519 7.23087 58.2825 7.23489 58.013C7.26706 55.7369 7.25097 53.4607 7.255 51.1806C7.255 50.8468 7.255 50.513 7.255 50.131H8.74695C8.7751 50.4165 8.82336 50.7101 8.82336 51.0036C8.8314 53.3441 8.82336 55.6806 8.8314 58.0211C8.8314 58.7811 8.73087 59.4849 7.91451 59.7865C6.99762 60.1203 6.06465 60.1645 5.26438 59.513C5.03114 59.324 4.83408 58.9339 4.83006 58.6323C4.79789 55.8294 4.80995 53.0264 4.80995 50.127Z" fill="#BABABA"/>
<path id="Vector_13" d="M46.0336 50.127H47.5658C47.5658 51.7757 47.5658 53.3884 47.5658 55.001C47.5658 55.938 47.5216 56.8749 47.5899 57.8079C47.614 58.1578 47.8915 58.4916 48.0524 58.8294C48.2012 58.4956 48.4746 58.1658 48.4827 57.8321C48.5229 55.6203 48.5028 53.4044 48.5028 51.1886C48.5028 50.8548 48.5028 50.517 48.5028 50.139H50.0229C50.0229 50.694 50.0229 51.2409 50.0229 51.7918C50.0229 54.0077 50.035 56.2194 50.0148 58.4353C50.0068 59.3843 49.4317 59.8991 48.3902 59.9835C47.0108 60.0961 46.0859 59.6658 46.0618 58.7007C45.9934 55.8736 46.0376 53.0425 46.0376 50.131L46.0336 50.127Z" fill="#BABABA"/>
<path id="Vector_14" d="M29.0543 46.8329H27.6508C28.0449 43.5996 28.4309 40.4146 28.821 37.2015C29.0704 37.1814 29.2232 37.1613 29.372 37.1533C31.1293 37.105 31.1575 37.101 31.3787 38.8302C31.7124 41.4562 32.006 44.0862 32.3237 46.7846H30.7795C30.6749 45.9884 30.5623 45.164 30.4457 44.2873H29.4202C29.2996 45.1238 29.1789 45.9482 29.0502 46.8248L29.0543 46.8329ZM30.0677 39.723C30.0074 39.7189 29.943 39.7109 29.8827 39.7069C29.7781 40.672 29.6535 41.6372 29.5972 42.6023C29.5891 42.723 29.9631 42.8677 30.3331 43.1171C30.2285 41.794 30.1521 40.7605 30.0717 39.723H30.0677Z" fill="#BABABA"/>
<path id="Vector_15" d="M57.1475 57.2609C57.0189 58.0853 56.8942 58.9057 56.7615 59.7622H55.3781C55.7682 56.5209 56.1543 53.336 56.5403 50.1309H58.8808C59.2709 53.3319 59.6569 56.5049 60.051 59.7461H58.5148C58.4384 59.2153 58.2856 58.6402 58.2896 58.0692C58.2937 57.3091 58.0122 57.0317 57.1475 57.2649V57.2609ZM57.7789 55.9459C57.8593 55.8856 57.9438 55.8212 58.0242 55.7609C57.9358 54.7274 57.8473 53.6898 57.7588 52.6563C57.4854 53.5692 57.3727 54.462 57.3406 55.3547C57.3325 55.5437 57.6261 55.7488 57.7789 55.9459Z" fill="#BABABA"/>
<path id="Vector_16" d="M54.8762 53.6417H53.3038C53.3038 53.0184 53.344 52.4072 53.2837 51.8039C53.2596 51.5747 52.9942 51.3696 52.8373 51.1565C52.6966 51.3616 52.4352 51.5627 52.4352 51.7677C52.407 53.9232 52.407 56.0747 52.4392 58.2302C52.4392 58.4313 52.7167 58.6283 52.8615 58.8294C53.0062 58.6283 53.2636 58.4313 53.2797 58.2182C53.336 57.5747 53.2998 56.9232 53.2998 56.2195H54.8601C54.8601 57.0761 54.9365 57.9206 54.84 58.745C54.7395 59.5774 54.0759 59.8991 53.2958 59.9755C52.0089 60.1002 51.2287 59.7624 50.9472 58.934C50.8507 58.6444 50.8025 58.3227 50.8025 58.0171C50.7904 55.9862 50.7904 53.9594 50.7985 51.9286C50.7985 51.1806 50.9352 50.4648 51.7314 50.1511C52.6161 49.7972 53.525 49.7651 54.3092 50.3683C54.5907 50.5854 54.8119 51.0238 54.8561 51.3857C54.9405 52.0895 54.8802 52.8133 54.8802 53.6458L54.8762 53.6417Z" fill="#BABABA"/>
<path id="Vector_17" d="M62.9833 56.2076H64.5798C64.5798 57.0601 64.6482 57.8684 64.5637 58.6606C64.4592 59.6017 63.6428 60.044 62.3238 59.9837C61.2259 59.9354 60.5503 59.4207 60.5383 58.4716C60.5021 56.1311 60.498 53.7907 60.5423 51.4502C60.5624 50.477 61.3546 49.918 62.5248 49.8979C63.7232 49.8778 64.5235 50.4649 64.5919 51.4703C64.6361 52.1499 64.5999 52.8336 64.5999 53.5976H63.0034V51.2933C62.3358 50.9917 62.1026 51.2491 62.0986 51.8C62.0905 53.9234 62.0825 56.0427 62.1187 58.166C62.1187 58.3872 62.4283 58.6043 62.5972 58.8215C62.7259 58.6084 62.9511 58.3992 62.9672 58.1781C63.0195 57.5628 62.9833 56.9395 62.9833 56.2076Z" fill="#BABABA"/>
<path id="Vector_18" d="M27.3207 8.21503C27.3087 9.7472 26.058 11.0099 24.5298 11.03C22.9253 11.0542 21.5017 9.71905 21.5097 8.19895C21.5178 6.49385 22.7926 5.23916 24.4816 5.26731C26.1505 5.29546 27.3328 6.522 27.3207 8.21503Z" fill="#BABABA"/>
<path id="Vector_19" d="M10.1746 22.3471C10.2189 20.8149 11.554 19.5924 13.1505 19.6205C14.743 19.6487 15.9897 20.9878 15.9414 22.6165C15.8931 24.2291 14.5902 25.4195 12.9293 25.3712C11.3127 25.327 10.1264 24.02 10.1746 22.3431V22.3471Z" fill="#BABABA"/>
<path id="Vector_20" d="M46.0659 6.6916C46.0659 8.3605 44.8394 9.579 43.1705 9.56292C41.6101 9.55085 40.3675 8.27203 40.3715 6.67954C40.3715 5.08704 41.6302 3.79616 43.1745 3.80018C44.8434 3.8042 46.0659 5.02672 46.0659 6.6916Z" fill="#BABABA"/>
<path id="Vector_21" d="M1.51609 56.2193V59.7461H0V50.2314C2.01877 49.6804 3.66756 50.2595 3.94504 51.6268C4.54022 54.5464 3.88874 55.8533 1.51206 56.2193H1.51609ZM1.92225 51.3212C1.80161 51.3574 1.68097 51.3936 1.56032 51.4298V54.848C2.17963 55.0129 2.48526 54.7434 2.39276 54.2046C2.22788 53.2515 2.90751 52.0692 1.92225 51.3212Z" fill="#BABABA"/>
<path id="Vector_22" d="M37.1627 50.127H40.5648V51.3455H38.7874V53.7905C39.3222 53.8186 39.841 53.8468 40.4563 53.879C40.4764 54.261 40.4965 54.6149 40.5246 55.0894H38.7833V58.4755C39.3906 58.5077 39.9697 58.5358 40.5849 58.564V59.7543H37.1627V50.127Z" fill="#BABABA"/>
<path id="Vector_23" d="M0.0441284 37.2061H3.38997V38.4004H1.59239V40.8495C2.13528 40.8817 2.67818 40.9138 3.26933 40.95V42.1605H1.60445V45.5305H3.39802V46.8093H0.0481496V37.2061H0.0441284Z" fill="#BABABA"/>
<path id="Vector_24" d="M9.74477 50.1393H13.0786V51.3257C12.4713 51.3578 11.8922 51.386 11.2568 51.4182V53.7828C11.8198 53.8109 12.3949 53.8391 13.0062 53.8712V55.0696C12.4432 55.0978 11.8922 55.1259 11.2689 55.1581V58.4637C11.856 58.4959 12.4351 58.5281 13.0705 58.5602V59.7426H9.74075V50.1353L9.74477 50.1393Z" fill="#BABABA"/>
<path id="Vector_25" d="M34.2017 50.1789C33.4255 53.3639 32.203 56.4041 32.7016 59.7621C32.3156 59.7822 32.1065 59.8023 31.8933 59.7982C31.6521 59.7982 31.4108 59.7781 31.0086 59.758C31.5234 56.4122 30.2325 53.38 29.5167 50.2674C30.8759 49.8612 31.0287 49.9377 31.3303 51.124C31.4389 51.5462 31.5274 51.9685 31.6239 52.3948C31.7124 52.7848 31.7968 53.1749 31.9014 53.6535C32.1025 52.7848 32.2754 52.0047 32.4684 51.2285C32.7781 49.994 32.7861 49.994 34.2017 50.183V50.1789Z" fill="#BABABA"/>
<path id="Vector_26" d="M12.3612 38.4728C11.8304 38.4487 11.4886 38.4326 11.0784 38.4125V37.2061H15.2406V38.3803C14.8867 38.4125 14.4966 38.4487 13.9859 38.4969V46.8133H12.3653V38.4728H12.3612Z" fill="#BABABA"/>
<path id="Vector_27" d="M18.5753 59.7266V50.1595H20.1235V58.4759H22.0217C22.0458 58.9344 22.0619 59.2882 22.082 59.7266H18.5753Z" fill="#BABABA"/>
<path id="Vector_28" d="M32.9359 46.7807V37.2016H34.4077V45.5501H36.3259V46.7847H32.9359V46.7807Z" fill="#BABABA"/>
<path id="Vector_29" d="M66.9118 50.1595V59.7467H65.452V50.1595H66.9118Z" fill="#BABABA"/>
<path id="Vector_30" d="M25.6283 37.2061H27.0399V46.7972H25.6283V37.2061Z" fill="#BABABA"/>
<path id="Vector_31" d="M10.38 46.8293H8.93634V37.21H10.38V46.8293Z" fill="#BABABA"/>
<path id="Vector_32" d="M71.7427 47.2839C70.677 48.0641 70.4277 49.4354 68.9599 49.5882C69.8607 47.3523 70.0537 47.1793 71.7427 47.2839Z" fill="#BABABA"/>
</g>
</svg>
