<svg width="60" height="60" viewBox="0 0 60 60" fill="none" xmlns="http://www.w3.org/2000/svg">
<g id="Icono /4">
<path id="Vector" d="M30.0001 0C46.5717 0 60 13.4284 60 30V60H30.0001C13.4285 60 0 46.5716 0 30C0 13.4284 13.4285 0 30.0001 0Z" fill="#474747"/>
<g id="graduation-cap-01">
<g id="Group 292">
<path id="Vector_2" d="M21.0235 34.9854H10.3027V25.4565C10.3027 22.9276 11.3073 20.5023 13.0955 18.7142C14.8837 16.926 17.309 15.9214 19.8378 15.9214H30.6959C33.1091 15.9189 35.4331 16.8334 37.1976 18.4797C38.9621 20.126 40.0352 22.3812 40.1998 24.7888" stroke="#EBEBEB" stroke-width="3" stroke-miterlimit="10"/>
<path id="Vector_3" d="M30.5331 24.7886H41.3912C43.92 24.7886 46.3453 25.7932 48.1335 27.5813C49.9217 29.3695 50.9263 31.7948 50.9263 34.3237V43.8276H30.5331C28.0097 43.8276 25.5891 42.8273 23.8018 41.0458C22.0145 39.2644 21.0063 36.8471 20.998 34.3237C20.998 31.7948 22.0026 29.3695 23.7908 27.5813C25.579 25.7932 28.0043 24.7886 30.5331 24.7886Z" stroke="#EBEBEB" stroke-width="3" stroke-miterlimit="10"/>
</g>
</g>
</g>
</svg>
