<svg width="13" height="10" viewBox="0 0 13 10" fill="none" xmlns="http://www.w3.org/2000/svg">
<g id="eye">
<path id="Combo shape" fill-rule="evenodd" clip-rule="evenodd" d="M12.2702 6.28145C13.2433 5.35139 13.2433 3.73439 12.2702 2.80434C10.9287 1.5222 8.84273 0 6.5 0C4.15727 0 2.0713 1.5222 0.729824 2.80434C-0.243275 3.73439 -0.243274 5.35139 0.729824 6.28145C2.0713 7.56358 4.15727 9.08578 6.5 9.08578C8.84273 9.08578 10.9287 7.56358 12.2702 6.28145ZM6.49998 6.48984C7.57694 6.48984 8.44998 5.61816 8.44998 4.54289C8.44998 3.46762 7.57694 2.59594 6.49998 2.59594C5.42302 2.59594 4.54998 3.46762 4.54998 4.54289C4.54998 5.61816 5.42302 6.48984 6.49998 6.48984Z" fill="#474747"/>
</g>
</svg>
