<svg width="40" height="40" viewBox="0 0 40 40" fill="none" xmlns="http://www.w3.org/2000/svg">
<g id="Icon / Facebook">
<path id="Vector" d="M27.4993 10H22.4993C21.5788 10 20.8327 10.7462 20.8327 11.6667V16.6667H27.4993C27.6889 16.6625 27.8687 16.7507 27.9813 16.9032C28.094 17.0557 28.1257 17.2533 28.066 17.4333L26.8327 21.1C26.719 21.4365 26.4045 21.664 26.0493 21.6667H20.8327V34.1667C20.8327 34.6268 20.4595 35 19.9993 35H15.8327C15.3724 35 14.9993 34.6268 14.9993 34.1667V21.6667H12.4993C12.0391 21.6667 11.666 21.2935 11.666 20.8333V17.5C11.666 17.0398 12.0391 16.6667 12.4993 16.6667H14.9993V11.6667C14.9993 7.98477 17.9842 5 21.666 5H27.4993C27.9595 5 28.3327 5.3731 28.3327 5.83333V9.16667C28.3327 9.6269 27.9595 10 27.4993 10Z" fill="#474747"/>
</g>
</svg>
