<svg width="43" height="43" viewBox="0 0 43 43" fill="none" xmlns="http://www.w3.org/2000/svg">
<g id="Group 159">
<path id="Vector" d="M29.0208 10.375H23.6458C22.6563 10.375 21.8542 11.1772 21.8542 12.1667V17.5417H29.0208C29.2245 17.5372 29.4179 17.632 29.539 17.7959C29.6601 17.9598 29.6941 18.1723 29.63 18.3658L28.3042 22.3075C28.182 22.6692 27.8439 22.9138 27.4621 22.9167H21.8542V36.3542C21.8542 36.8488 21.453 37.25 20.9583 37.25H16.4792C15.9844 37.25 15.5833 36.8488 15.5833 36.3542V22.9167H12.8958C12.4011 22.9167 12 22.5155 12 22.0208V18.4375C12 17.9428 12.4011 17.5417 12.8958 17.5417H15.5833V12.1667C15.5833 8.20862 18.792 5 22.75 5H29.0208C29.5155 5 29.9167 5.40108 29.9167 5.89583V9.47917C29.9167 9.97392 29.5155 10.375 29.0208 10.375Z" fill="white"/>
</g>
</svg>
