<svg width="43" height="43" viewBox="0 0 43 43" fill="none" xmlns="http://www.w3.org/2000/svg">
<g id="Group 160">
<path id="Vector" fill-rule="evenodd" clip-rule="evenodd" d="M7.77778 5H34.2222C36.3087 5 38 6.64162 38 8.66667V34.3333C38 36.3584 36.3087 38 34.2222 38H7.77778C5.69137 38 4 36.3584 4 34.3333V8.66667C4 6.64162 5.69137 5 7.77778 5ZM13.4444 32.5C13.966 32.5 14.3889 32.0895 14.3889 31.5833V18.75C14.3889 18.2438 13.966 17.8333 13.4444 17.8333H10.6111C10.0895 17.8333 9.66667 18.2438 9.66667 18.75V31.5833C9.66667 32.0895 10.0895 32.5 10.6111 32.5H13.4444ZM12.0278 16C10.463 16 9.19444 14.7688 9.19444 13.25C9.19444 11.7312 10.463 10.5 12.0278 10.5C13.5926 10.5 14.8611 11.7312 14.8611 13.25C14.8611 14.7688 13.5926 16 12.0278 16ZM31.3889 32.5C31.9104 32.5 32.3333 32.0895 32.3333 31.5833V23.15C32.3947 20.2365 30.1755 17.75 27.1956 17.3933C25.1121 17.2086 23.0935 18.1531 21.9444 19.85V18.75C21.9444 18.2438 21.5215 17.8333 21 17.8333H18.1667C17.6451 17.8333 17.2222 18.2438 17.2222 18.75V31.5833C17.2222 32.0895 17.6451 32.5 18.1667 32.5H21C21.5215 32.5 21.9444 32.0895 21.9444 31.5833V24.7083C21.9444 23.1896 23.213 21.9583 24.7778 21.9583C26.3425 21.9583 27.6111 23.1896 27.6111 24.7083V31.5833C27.6111 32.0895 28.034 32.5 28.5556 32.5H31.3889Z" fill="white"/>
</g>
</svg>
