<svg width="60" height="60" viewBox="0 0 60 60" fill="none" xmlns="http://www.w3.org/2000/svg">
<path d="M30.0001 0C46.5717 0 60 13.4284 60 30V60H30.0001C13.4285 60 0 46.5716 0 30C0 13.4284 13.4285 0 30.0001 0Z" fill="#474747"/>
<path fill-rule="evenodd" clip-rule="evenodd" d="M17.2563 19.8586V41.3663C20.148 40.2058 24.4773 39.5548 29.2305 41.469V19.9477C29.2305 19.9446 29.2305 19.9415 29.2305 19.9383C24.039 17.3117 19.42 18.6313 17.2563 19.8586ZM32.4066 20.1322V41.554C35.2883 40.2816 39.8224 39.4538 44.8264 41.469V19.9383C39.2446 17.1143 34.3246 18.852 32.4066 20.1322ZM47.9824 19.2485C47.9956 19.331 48.0025 19.4158 48.0025 19.5021V44.01C48.0025 44.5777 47.6995 45.1022 47.2077 45.3858C46.7159 45.6693 46.1101 45.6688 45.6188 45.3843C39.5026 41.8434 34.0353 43.9471 32.2033 45.2906C31.8551 45.5459 31.4376 45.6385 31.0414 45.5823C30.6948 45.6314 30.3357 45.5654 30.0229 45.3843C23.9067 41.8434 18.4394 43.9471 16.6073 45.2906C16.1248 45.6445 15.4842 45.697 14.9504 45.4265C14.4166 45.156 14.0802 44.6084 14.0802 44.01V19.0565C14.0802 19.0471 14.0803 19.0377 14.0804 19.0284C14.0699 18.5283 14.2952 18.0312 14.7291 17.713C17.2792 15.843 23.803 13.4564 30.9882 17.2719C33.9817 15.4549 40.34 13.6418 47.2102 17.6193C47.7969 17.959 48.0849 18.6167 47.9824 19.2485Z" fill="#EBEBEB"/>
</svg>
