<svg width="520" height="80" viewBox="0 0 520 80" fill="none" xmlns="http://www.w3.org/2000/svg">
<path d="M151.575 0V79.2768H125.042C120.517 79.1552 116.314 77.8435 112.438 75.3353C108.558 72.8304 105.475 69.4609 103.182 65.2334C100.889 61.1276 99.7441 56.6864 99.7441 51.9132C99.7441 47.14 100.905 42.6266 103.227 38.5503C105.549 34.474 108.706 31.2262 112.703 28.81C116.698 26.453 121.019 25.2761 125.659 25.2761C128.48 25.2761 131.227 25.7462 133.901 26.6798C136.575 27.6167 138.999 28.9316 141.174 30.6213V5.40763C141.174 2.42275 143.528 0 146.435 0H151.575ZM141.174 68.5865V51.9165C141.174 49.8028 140.777 47.7811 139.984 45.8448C139.191 43.9119 138.059 42.1894 136.591 40.6805C135.123 39.1716 133.447 38.0079 131.566 37.1926C129.686 36.3774 127.716 35.9698 125.659 35.9698C123.603 35.9698 121.633 36.3774 119.752 37.1926C117.872 38.0079 116.196 39.1716 114.728 40.6805C113.26 42.1894 112.128 43.9119 111.335 45.8448C110.541 47.7778 110.145 49.8028 110.145 51.9165C110.145 54.1519 110.554 56.3412 111.379 58.4846C112.201 60.6279 113.317 62.426 114.728 63.8757C116.196 65.3846 117.872 66.5483 119.752 67.3636C121.633 68.1788 123.6 68.5865 125.659 68.5865H141.174Z" fill="#319FD8"/>
<path d="M164.373 25.8216H169.602V52.4587C169.602 54.6316 169.999 56.6862 170.792 58.6191C171.585 60.5521 172.717 62.2746 174.185 63.7835C175.653 65.2924 177.329 66.4561 179.21 67.2713C181.09 68.0866 183.089 68.4942 185.203 68.4942H200.542V31.2293C200.542 28.2444 202.896 25.8216 205.803 25.8216H211.032V79.2766H185.206C180.447 79.2766 176.069 78.0833 172.071 75.6967C168.073 73.3101 164.933 70.0656 162.64 65.9564C160.289 61.9097 159.115 57.4094 159.115 52.4554V31.226C159.115 28.2411 161.469 25.8184 164.376 25.8184L164.373 25.8216Z" fill="#319FD8"/>
<path d="M269.053 68.4948V79.2772H242.52C237.995 79.1555 233.763 77.8275 229.826 75.2897C225.889 72.7519 222.774 69.4021 220.481 65.2338C218.188 61.0655 217.043 56.598 217.043 51.8248C217.043 47.0517 218.204 42.525 220.526 38.4159C222.848 34.31 226.004 31.0457 230.002 28.6296C233.997 26.2726 238.346 25.0957 243.048 25.0957C247.749 25.0957 252.096 26.289 256.093 28.6756C260.088 31.0622 263.264 34.31 265.614 38.4159C267.908 42.4626 269.053 46.9333 269.053 51.8248H258.652C258.652 49.7111 258.255 47.673 257.462 45.7104C256.669 43.7479 255.537 42.0122 254.069 40.5C252.601 38.9912 250.909 37.8275 249 37.0122C247.09 36.197 245.107 35.7893 243.051 35.7893C238.938 35.7893 235.263 37.3607 232.033 40.5C230.565 42.0089 229.446 43.7479 228.685 45.7104C227.92 47.673 227.54 49.7111 227.54 51.8248C227.54 53.9386 227.936 56.1904 228.729 58.3929C229.522 60.5987 230.626 62.4231 232.036 63.8728C235.209 66.953 238.88 68.4948 243.054 68.4948H269.059H269.053Z" fill="#319FD8"/>
<path d="M315.793 25.8223V31.0754C313.618 29.3857 311.194 28.0872 308.52 27.1832C305.844 26.2759 303.071 25.8223 300.189 25.8223C295.488 25.8223 291.138 26.9991 287.144 29.3561C283.146 31.7756 279.992 35.0333 277.67 39.1424C275.348 43.2516 274.188 47.719 274.188 52.5514C274.188 57.3837 275.332 61.6704 277.629 65.7795C279.919 69.8262 283.018 73.0576 286.926 75.4738C290.834 77.8933 295.082 79.1622 299.665 79.2805H326.197V25.8223H315.796H315.793ZM315.793 68.4981H300.189C296.019 68.4981 292.347 66.9564 289.171 63.8762C286.174 60.6184 284.678 56.8413 284.678 52.5514C284.678 50.4376 285.058 48.3995 285.823 46.437C286.584 44.4745 287.7 42.7388 289.171 41.2266C292.405 38.0872 296.076 36.5159 300.189 36.5159C302.246 36.5159 304.232 36.9202 306.141 37.7388C308.05 38.554 309.739 39.7177 311.21 41.2266C312.675 42.7388 313.81 44.4745 314.6 46.437C315.393 48.3995 315.793 50.4376 315.793 52.5514V68.4981Z" fill="#319FD8"/>
<path d="M385.681 68.4948V79.2772H359.149C354.623 79.1555 350.392 77.8275 346.455 75.2897C342.518 72.7519 339.403 69.4021 337.11 65.2338C334.817 61.0655 333.672 56.598 333.672 51.8248C333.672 47.0517 334.833 42.525 337.155 38.4159C339.477 34.31 342.633 31.0457 346.631 28.6296C350.626 26.2726 354.975 25.0957 359.677 25.0957C364.378 25.0957 368.724 26.289 372.722 28.6756C376.717 31.0622 379.893 34.31 382.243 38.4159C384.536 42.4626 385.681 46.9333 385.681 51.8248H375.281C375.281 49.7111 374.884 47.673 374.091 45.7104C373.298 43.7479 372.166 42.0122 370.698 40.5C369.23 38.9912 367.538 37.8275 365.629 37.0122C363.719 36.197 361.736 35.7893 359.68 35.7893C355.567 35.7893 351.892 37.3607 348.662 40.5C347.194 42.0089 346.075 43.7479 345.313 45.7104C344.549 47.673 344.168 49.7111 344.168 51.8248C344.168 53.9386 344.565 56.1904 345.358 58.3929C346.151 60.5987 347.255 62.4231 348.665 63.8728C351.838 66.953 355.509 68.4948 359.683 68.4948H385.688H385.681Z" fill="#319FD8"/>
<path d="M399.088 5.6084C402.123 5.6084 404.583 8.13634 404.583 11.256V16.9036H399.088C396.053 16.9036 393.594 14.3757 393.594 11.256C393.594 8.13634 396.053 5.6084 399.088 5.6084ZM394.182 79.277H404.583V25.8221H394.182V79.277Z" fill="#319FD8"/>
<path d="M449.541 28.7213C453.507 31.1374 456.667 34.428 459.017 38.5963C461.311 42.8238 462.456 47.4458 462.456 52.4589V52.551C462.456 57.5641 461.311 62.1565 459.017 66.3215C456.724 70.4898 453.58 73.8133 449.586 76.2886C445.588 78.7673 441.213 80.0033 436.451 80.0033C431.689 80.0033 427.4 78.7969 423.405 76.3807C419.407 73.9645 416.267 70.6443 413.974 66.4136C411.623 62.3077 410.449 57.6857 410.449 52.551V52.4589C410.449 47.4458 411.594 42.8403 413.887 38.6424C416.18 34.4445 419.353 31.1374 423.408 28.7213C427.345 26.3051 431.724 25.0986 436.544 25.0986C441.363 25.0986 445.579 26.3084 449.544 28.7213H449.541ZM452.317 52.551C452.317 47.6003 450.76 43.5207 447.645 40.3189C444.529 37.117 440.797 35.5161 436.451 35.5161C432.104 35.5161 428.369 37.117 425.257 40.3189C422.145 43.5207 420.674 47.5378 420.674 52.551C420.674 57.5641 422.203 61.6437 425.257 64.7831C426.725 66.2919 428.43 67.4556 430.371 68.2709C432.309 69.0861 434.337 69.4938 436.454 69.4938C438.571 69.4938 440.596 69.0861 442.537 68.2709C444.475 67.4556 446.18 66.2919 447.651 64.7831C450.766 61.5812 452.324 57.5049 452.324 52.551H452.317Z" fill="#319FD8"/>
<path d="M519.648 79.2772H509.158V52.5481C509.158 50.4344 508.762 48.3962 507.969 46.4337C507.175 44.4712 506.043 42.7355 504.575 41.2233C503.107 39.7144 501.431 38.5507 499.551 37.7355C497.67 36.9202 495.671 36.5126 493.557 36.5126H478.219V79.2772H467.729V25.8223H493.554C498.313 25.8223 502.691 26.9991 506.689 29.3561C510.684 31.7131 513.857 34.9741 516.21 39.1424C518.504 43.1891 519.648 47.6599 519.648 52.5514V79.2805V79.2772Z" fill="#319FD8"/>
<path d="M18.4291 66.0159C18.8864 64.8358 19.5581 63.7937 20.4408 62.8831C22.3853 60.9962 24.5921 60.0527 27.0643 60.0527H88.7773C90.0118 60.0527 91.208 60.296 92.3561 60.7858C93.5043 61.2756 94.5181 61.9758 95.404 62.8831C96.2867 63.7904 96.968 64.8358 97.4413 66.0159C97.9178 67.1961 98.1577 68.4222 98.1577 69.6911V79.2769H27.0643C24.5569 79.2769 22.3501 78.3499 20.4408 76.4992C18.6402 74.5399 17.7383 72.2717 17.7383 69.6911C17.7383 68.4222 17.9686 67.1961 18.4259 66.0159H18.4291Z" fill="#319FD8"/>
<path d="M18.4291 5.96318C18.8864 4.78304 19.5581 3.74096 20.4408 2.83037C22.3853 0.943458 24.5921 0 27.0643 0H88.7773C90.015 0 91.2112 0.243261 92.3561 0.73307C93.5043 1.22288 94.5181 1.92308 95.404 2.83037C96.2867 3.73767 96.968 4.78304 97.4413 5.96318C97.9178 7.14333 98.1577 8.36949 98.1577 9.6384V19.2242H27.0643C24.5569 19.2242 22.3501 18.2972 20.4408 16.4464C18.6402 14.4872 17.7383 12.2189 17.7383 9.6384C17.7383 8.36949 17.9686 7.14333 18.4259 5.96318H18.4291Z" fill="#319FD8"/>
<path d="M80.2286 35.9896C79.7712 34.8094 79.0996 33.7673 78.2169 32.8567C76.2724 30.9698 74.0656 30.0264 71.5934 30.0264H9.8804C8.64588 30.0264 7.44975 30.2696 6.30158 30.7594C5.15342 31.2492 4.13958 31.9494 3.25367 32.8567C2.37096 33.764 1.68974 34.8094 1.2164 35.9896C0.739867 37.1697 0.5 38.3959 0.5 39.6648V49.2506H71.5934C74.1008 49.2506 76.3076 48.3235 78.2169 46.4728C80.0175 44.5135 80.9194 42.2453 80.9194 39.6648C80.9194 38.3959 80.6891 37.1697 80.2318 35.9896H80.2286Z" fill="#474747"/>
<path d="M427.146 6.20996H446.517C449.389 6.20996 451.718 8.60312 451.718 11.5551V16.9003H427.146C424.274 16.9003 421.945 14.5071 421.945 11.5551C421.945 8.60312 424.274 6.20996 427.146 6.20996Z" fill="#319FD8"/>
</svg>
