<svg width="290" height="44" viewBox="0 0 290 44" fill="none" xmlns="http://www.w3.org/2000/svg">
<path d="M84.3903 0V43.6022H69.5691C67.0411 43.5353 64.6936 42.8139 62.5283 41.4344C60.3612 40.0567 58.639 38.2035 57.358 35.8784C56.0771 33.6201 55.4375 31.1775 55.4375 28.5523C55.4375 25.927 56.086 23.4446 57.3831 21.2027C58.6801 18.9607 60.4434 17.1744 62.6766 15.8455C64.908 14.5491 67.3216 13.9019 69.9139 13.9019C71.4897 13.9019 73.0243 14.1604 74.5179 14.6739C76.0114 15.1892 77.3656 15.9124 78.5805 16.8417V2.97419C78.5805 1.33251 79.8954 0 81.5193 0H84.3903ZM78.5805 37.7225V28.5541C78.5805 27.3915 78.3589 26.2796 77.9159 25.2147C77.4728 24.1515 76.8404 23.2041 76.0203 22.3743C75.2003 21.5444 74.2642 20.9043 73.2137 20.4559C72.1632 20.0076 71.0627 19.7834 69.9139 19.7834C68.7652 19.7834 67.6647 20.0076 66.6142 20.4559C65.5637 20.9043 64.6275 21.5444 63.8075 22.3743C62.9875 23.2041 62.355 24.1515 61.912 25.2147C61.4689 26.2778 61.2474 27.3915 61.2474 28.5541C61.2474 29.7835 61.476 30.9877 61.937 32.1665C62.3961 33.3453 63.0196 34.3343 63.8075 35.1317C64.6275 35.9615 65.5637 36.6016 66.6142 37.05C67.6647 37.4984 68.7634 37.7225 69.9139 37.7225H78.5805Z" fill="#319FD8"/>
<path d="M91.5406 14.202H94.4616V28.8524C94.4616 30.0475 94.6831 31.1775 95.1262 32.2406C95.5693 33.3037 96.2017 34.2511 97.0217 35.081C97.8418 35.9109 98.7779 36.5509 99.8284 36.9993C100.879 37.4477 101.995 37.6719 103.176 37.6719H111.745V17.1762C111.745 15.5345 113.06 14.202 114.684 14.202H117.605V43.6022H103.178C100.52 43.6022 98.074 42.9459 95.8408 41.6333C93.6076 40.3207 91.8532 38.5362 90.5723 36.2761C89.2592 34.0505 88.6035 31.5753 88.6035 28.8506V17.1744C88.6035 15.5327 89.9184 14.2002 91.5424 14.2002L91.5406 14.202Z" fill="#319FD8"/>
<path d="M150.014 37.672V43.6023H135.193C132.665 43.5354 130.301 42.805 128.102 41.4092C125.903 40.0134 124.162 38.171 122.881 35.8784C121.601 33.5859 120.961 31.1288 120.961 28.5035C120.961 25.8783 121.609 23.3886 122.906 21.1286C124.204 18.8704 125.967 17.075 128.2 15.7461C130.431 14.4498 132.861 13.8025 135.487 13.8025C138.114 13.8025 140.542 14.4588 142.775 15.7714C145.006 17.084 146.78 18.8704 148.093 21.1286C149.374 23.3543 150.014 25.8132 150.014 28.5035H144.204C144.204 27.3409 143.982 26.22 143.539 25.1406C143.096 24.0612 142.464 23.1066 141.644 22.2749C140.824 21.445 139.879 20.805 138.812 20.3566C137.746 19.9082 136.638 19.684 135.489 19.684C133.192 19.684 131.139 20.5482 129.334 22.2749C128.514 23.1048 127.889 24.0612 127.464 25.1406C127.037 26.22 126.824 27.3409 126.824 28.5035C126.824 29.6661 127.046 30.9046 127.489 32.1159C127.932 33.3291 128.548 34.3326 129.336 35.1299C131.109 36.824 133.16 37.672 135.491 37.672H150.017H150.014Z" fill="#319FD8"/>
<path d="M176.124 14.2019V17.0911C174.909 16.1618 173.555 15.4476 172.061 14.9504C170.566 14.4514 169.017 14.2019 167.407 14.2019C164.781 14.2019 162.352 14.8492 160.12 16.1455C157.887 17.4762 156.125 19.268 154.828 21.528C153.531 23.788 152.883 26.2451 152.883 28.9029C152.883 31.5607 153.522 33.9184 154.805 36.1784C156.084 38.4041 157.815 40.1814 159.999 41.5103C162.182 42.841 164.554 43.5389 167.114 43.6039H181.936V14.2019H176.126H176.124ZM176.124 37.6736H167.407C165.078 37.6736 163.027 36.8257 161.253 35.1316C159.579 33.3398 158.743 31.2624 158.743 28.9029C158.743 27.7404 158.955 26.6194 159.382 25.54C159.807 24.4606 160.431 23.506 161.253 22.6743C163.059 20.9476 165.11 20.0834 167.407 20.0834C168.556 20.0834 169.666 20.3058 170.732 20.756C171.799 21.2044 172.742 21.8444 173.564 22.6743C174.382 23.506 175.016 24.4606 175.458 25.54C175.901 26.6194 176.124 27.7404 176.124 28.9029V37.6736Z" fill="#319FD8"/>
<path d="M215.164 37.672V43.6023H200.343C197.815 43.5354 195.451 42.805 193.252 41.4092C191.053 40.0134 189.313 38.171 188.032 35.8784C186.751 33.5859 186.111 31.1288 186.111 28.5035C186.111 25.8783 186.76 23.3886 188.057 21.1286C189.354 18.8704 191.117 17.075 193.35 15.7461C195.582 14.4498 198.012 13.8025 200.638 13.8025C203.264 13.8025 205.692 14.4588 207.925 15.7714C210.157 17.084 211.931 18.8704 213.244 21.1286C214.525 23.3543 215.164 25.8132 215.164 28.5035H209.354C209.354 27.3409 209.133 26.22 208.69 25.1406C208.247 24.0612 207.614 23.1066 206.794 22.2749C205.974 21.445 205.029 20.805 203.963 20.3566C202.896 19.9082 201.788 19.684 200.64 19.684C198.342 19.684 196.289 20.5482 194.485 22.2749C193.665 23.1048 193.04 24.0612 192.614 25.1406C192.187 26.22 191.975 27.3409 191.975 28.5035C191.975 29.6661 192.196 30.9046 192.639 32.1159C193.082 33.3291 193.699 34.3326 194.487 35.1299C196.259 36.824 198.31 37.672 200.641 37.672H215.168H215.164Z" fill="#319FD8"/>
<path d="M222.653 3.08447C224.349 3.08447 225.723 4.47484 225.723 6.19065V9.29683H222.653C220.958 9.29683 219.584 7.90647 219.584 6.19065C219.584 4.47484 220.958 3.08447 222.653 3.08447ZM219.913 43.6022H225.723V14.202H219.913V43.6022Z" fill="#319FD8"/>
<path d="M250.837 15.7966C253.052 17.1255 254.817 18.9354 256.131 21.2279C257.412 23.553 258.051 26.0951 258.051 28.8524V28.903C258.051 31.6602 257.412 34.186 256.131 36.4768C254.85 38.7694 253.093 40.5973 250.862 41.9587C248.629 43.3219 246.185 44.0018 243.525 44.0018C240.864 44.0018 238.469 43.3382 236.237 42.0093C234.004 40.6804 232.25 38.8543 230.969 36.5274C229.656 34.2692 229 31.7271 229 28.903V28.8524C229 26.0951 229.64 23.5621 230.921 21.2532C232.201 18.9444 233.974 17.1255 236.239 15.7966C238.438 14.4677 240.884 13.8042 243.576 13.8042C246.269 13.8042 248.623 14.4696 250.839 15.7966H250.837ZM252.388 28.903C252.388 26.1801 251.518 23.9363 249.778 22.1753C248.037 20.4143 245.953 19.5338 243.525 19.5338C241.097 19.5338 239.01 20.4143 237.272 22.1753C235.533 23.9363 234.712 26.1458 234.712 28.903C234.712 31.6602 235.566 33.904 237.272 35.6306C238.092 36.4605 239.044 37.1005 240.128 37.5489C241.211 37.9973 242.344 38.2215 243.526 38.2215C244.709 38.2215 245.84 37.9973 246.924 37.5489C248.007 37.1005 248.959 36.4605 249.781 35.6306C251.521 33.8696 252.391 31.6277 252.391 28.903H252.388Z" fill="#319FD8"/>
<path d="M289.999 43.6021H284.139V28.9011C284.139 27.7386 283.918 26.6176 283.474 25.5382C283.031 24.4588 282.399 23.5042 281.579 22.6725C280.759 21.8426 279.823 21.2026 278.772 20.7542C277.722 20.3058 276.605 20.0816 275.424 20.0816H266.856V43.6021H260.996V14.2019H275.422C278.081 14.2019 280.527 14.8492 282.76 16.1455C284.991 17.4419 286.763 19.2354 288.078 21.528C289.359 23.7537 289.999 26.2126 289.999 28.9029V43.6039V43.6021Z" fill="#319FD8"/>
<path d="M10.0148 36.3086C10.2703 35.6595 10.6455 35.0863 11.1385 34.5855C12.2248 33.5477 13.4575 33.0288 14.8385 33.0288H49.3118C50.0014 33.0288 50.6695 33.1626 51.3109 33.432C51.9523 33.7014 52.5186 34.0865 53.0135 34.5855C53.5066 35.0845 53.8871 35.6595 54.1515 36.3086C54.4177 36.9576 54.5517 37.632 54.5517 38.3299V43.6021H14.8385C13.4378 43.6021 12.2051 43.0923 11.1385 42.0743C10.1327 40.9968 9.62891 39.7492 9.62891 38.3299C9.62891 37.632 9.75754 36.9576 10.013 36.3086H10.0148Z" fill="#319FD8"/>
<path d="M10.0148 3.27975C10.2703 2.63067 10.6455 2.05753 11.1385 1.55671C12.2248 0.518902 13.4575 0 14.8385 0H49.3118C50.0032 0 50.6713 0.133794 51.3109 0.403189C51.9523 0.672584 52.5186 1.05769 53.0135 1.55671C53.5066 2.05572 53.8871 2.63067 54.1515 3.27975C54.4177 3.92883 54.5517 4.60322 54.5517 5.30112V10.5733H14.8385C13.4378 10.5733 12.2051 10.0634 11.1385 9.04553C10.1327 7.96795 9.62891 6.72041 9.62891 5.30112C9.62891 4.60322 9.75754 3.92883 10.013 3.27975H10.0148Z" fill="#319FD8"/>
<path d="M44.5369 19.7942C44.2814 19.1451 43.9063 18.5719 43.4132 18.0711C42.327 17.0333 41.0942 16.5144 39.7132 16.5144H5.23995C4.55034 16.5144 3.88217 16.6482 3.2408 16.9176C2.59943 17.187 2.03309 17.5721 1.53822 18.0711C1.04513 18.5701 0.664597 19.1451 0.400187 19.7942C0.133991 20.4432 0 21.1176 0 21.8155V27.0877H39.7132C41.1139 27.0877 42.3466 26.5778 43.4132 25.5599C44.419 24.4824 44.9228 23.2348 44.9228 21.8155C44.9228 21.1176 44.7942 20.4432 44.5387 19.7942H44.5369Z" fill="white"/>
<path d="M238.327 3.41528H249.148C250.752 3.41528 252.053 4.73152 252.053 6.35513V9.29497H238.327C236.722 9.29497 235.422 7.97873 235.422 6.35513C235.422 4.73152 236.722 3.41528 238.327 3.41528Z" fill="#319FD8"/>
</svg>
