<svg width="81" height="80" viewBox="0 0 81 80" fill="none" xmlns="http://www.w3.org/2000/svg">
<path d="M57.8741 52.3292C58.8995 53.423 58.8995 55.1319 57.8741 56.2257C56.7804 57.2511 55.0714 57.2511 53.9776 56.2257L45.8429 48.0226C43.0401 49.8683 39.6222 50.8253 35.9308 50.3468C29.6417 49.4581 24.5831 44.3312 23.7628 38.1105C22.6007 28.8136 30.462 20.9523 39.7589 22.1144C45.9796 22.9347 51.1065 27.9933 51.9952 34.2823C52.4737 37.9737 51.5167 41.3917 49.671 44.1261L57.8741 52.3292ZM29.0948 36.1964C29.0948 41.0499 32.9913 44.9464 37.8448 44.9464C42.63 44.9464 46.5948 41.0499 46.5948 36.1964C46.5948 31.4112 42.63 27.4464 37.8448 27.4464C32.9913 27.4464 29.0948 31.4112 29.0948 36.1964Z" fill="#319FD8"/>
</svg>
