<svg width="37" height="37" viewBox="0 0 37 37" fill="none" xmlns="http://www.w3.org/2000/svg">
<g id="Icon m /5">
<path id="Vector" d="M18.5001 0C28.7192 0 37 8.28085 37 18.5V37H18.5001C8.28091 37 0 28.7192 0 18.5C0 8.28085 8.28091 0 18.5001 0Z" fill="#319FD8"/>
<path id="Icon" d="M9.96045 18.7039C10.255 20.7278 11.2684 22.578 12.8152 23.916C14.3621 25.254 16.3389 25.9903 18.3841 25.9903M18.3841 25.9903C20.4294 25.9903 22.4062 25.254 23.953 23.916C25.4999 22.578 26.5133 20.7278 26.8078 18.7039M18.3841 25.9903V30.2531M18.3853 8.97815C17.4181 8.97815 16.4904 9.3624 15.8064 10.0464C15.1225 10.7303 14.7382 11.658 14.7382 12.6253V17.4881C14.7382 18.4554 15.1225 19.3831 15.8064 20.0671C16.4904 20.751 17.4181 21.1353 18.3853 21.1353C19.3526 21.1353 20.2803 20.751 20.9643 20.0671C21.6482 19.3831 22.0325 18.4554 22.0325 17.4881V12.6253C22.0325 11.658 21.6482 10.7303 20.9643 10.0464C20.2803 9.3624 19.3526 8.97815 18.3853 8.97815Z" stroke="#EBEBEB" stroke-width="2" stroke-linecap="round" stroke-linejoin="round"/>
</g>
</svg>
