<svg width="81" height="80" viewBox="0 0 81 80" fill="none" xmlns="http://www.w3.org/2000/svg">
<path d="M40.5 20C42.7096 20 44.5 21.7905 44.5 24C44.5 26.2091 42.7091 28 40.5 28C38.2905 28 36.5 26.2095 36.5 24C36.5 21.7905 38.2905 20 40.5 20Z" fill="#319FD8"/>
<path d="M40.5 51.2002C42.7096 51.2002 44.5 52.9906 44.5 55.2002C44.5 57.4093 42.7091 59.2002 40.5 59.2002C38.2905 59.2002 36.5 57.4097 36.5 55.2002C36.5 52.9906 38.2905 51.2002 40.5 51.2002Z" fill="#319FD8"/>
<path d="M40.5 35.2002C42.7096 35.2002 44.5 36.9906 44.5 39.2002C44.5 41.4093 42.7091 43.2002 40.5 43.2002C38.2905 43.2002 36.5 41.4097 36.5 39.2002C36.5 36.9906 38.2905 35.2002 40.5 35.2002Z" fill="#319FD8"/>
</svg>
