<svg width="44" height="44" viewBox="0 0 44 44" fill="none" xmlns="http://www.w3.org/2000/svg">
<g id="microphone-01">
<path id="Icon" d="M8.76172 20.7089C9.23938 23.9909 10.8827 26.9912 13.3911 29.161C15.8995 31.3307 19.1052 32.5248 22.4217 32.5248M22.4217 32.5248C25.7383 32.5248 28.944 31.3307 31.4524 29.161C33.9608 26.9912 35.6041 23.9909 36.0818 20.7089M22.4217 32.5248V39.4375M22.4237 4.9375C20.8552 4.9375 19.3508 5.56061 18.2417 6.66975C17.1325 7.7789 16.5094 9.28322 16.5094 10.8518V18.7375C16.5094 20.3061 17.1325 21.8104 18.2417 22.9195C19.3508 24.0287 20.8552 24.6518 22.4237 24.6518C23.9923 24.6518 25.4966 24.0287 26.6057 22.9195C27.7149 21.8104 28.338 20.3061 28.338 18.7375V10.8518C28.338 9.28322 27.7149 7.7789 26.6057 6.66975C25.4966 5.56061 23.9923 4.9375 22.4237 4.9375Z" stroke="#319FD8" stroke-width="3" stroke-linecap="round" stroke-linejoin="round"/>
</g>
</svg>
