<svg width="42" height="41" viewBox="0 0 42 41" fill="none" xmlns="http://www.w3.org/2000/svg">
<path d="M21.0001 0C32.6002 0 42 9.17608 42 20.5V41H21.0001C9.39995 41 0 31.8239 0 20.5C0 9.17608 9.39995 0 21.0001 0Z" fill="#319FD8"/>
<path d="M11.3065 20.7259C11.6408 22.9686 12.7912 25.0188 14.547 26.5014C16.3029 27.9841 18.5469 28.8 20.8685 28.8M20.8685 28.8C23.1901 28.8 25.4341 27.9841 27.1899 26.5014C28.9458 25.0188 30.0961 22.9686 30.4305 20.7259M20.8685 28.8V33.5237M20.8699 9.94873C19.7719 9.94873 18.7188 10.3745 17.9424 11.1324C17.166 11.8904 16.7299 12.9183 16.7299 13.9902V19.3787C16.7299 20.4506 17.166 21.4785 17.9424 22.2365C18.7188 22.9944 19.7719 23.4202 20.8699 23.4202C21.9679 23.4202 23.0209 22.9944 23.7973 22.2365C24.5737 21.4785 25.0099 20.4506 25.0099 19.3787V13.9902C25.0099 12.9183 24.5737 11.8904 23.7973 11.1324C23.0209 10.3745 21.9679 9.94873 20.8699 9.94873Z" stroke="#EBEBEB" stroke-width="2" stroke-linecap="round" stroke-linejoin="round"/>
</svg>
