<svg width="60" height="60" viewBox="0 0 60 60" fill="none" xmlns="http://www.w3.org/2000/svg">
<path d="M30.0001 0C46.5717 0 60 13.4284 60 30V60H30.0001C13.4285 60 0 46.5716 0 30C0 13.4284 13.4285 0 30.0001 0Z" fill="#474747"/>
<path fill-rule="evenodd" clip-rule="evenodd" d="M14.2753 22.2822L10.455 27.0653L23.8058 31.8123L27.5282 27.0676L14.2753 22.2822ZM28.3275 30.0926L25.4861 33.7144C25.243 34.0207 24.91 34.2432 24.534 34.3507C24.1585 34.458 23.7589 34.4451 23.3911 34.314C23.3905 34.3138 23.39 34.3136 23.3894 34.3134L8.78484 29.1207L8.7804 29.1191C8.50383 29.0184 8.25488 28.8539 8.05379 28.6389C7.8527 28.424 7.70513 28.1646 7.62306 27.8819C7.541 27.5993 7.52674 27.3012 7.58146 27.012C7.63617 26.7228 7.75832 26.4505 7.93797 26.2174L7.94462 26.2087L12.6119 20.3652C12.8574 20.0621 13.1914 19.8433 13.5674 19.7392C13.9424 19.6354 14.3404 19.6511 14.7061 19.7839C14.707 19.7843 14.7078 19.7846 14.7087 19.7849L30.8236 25.6036V43.7155C30.8236 44.4047 30.2649 44.9635 29.5756 44.9635C28.8863 44.9635 28.3275 44.4047 28.3275 43.7155V30.0926Z" fill="#EBEBEB"/>
<path fill-rule="evenodd" clip-rule="evenodd" d="M13.3516 28.271C14.0408 28.271 14.5996 28.8298 14.5996 29.519V38.1878L29.5762 43.9807L44.5528 38.1878V29.519C44.5528 28.8298 45.1116 28.271 45.8009 28.271C46.4901 28.271 47.0489 28.8298 47.0489 29.519V38.6173L47.0489 38.621C47.0478 38.9981 46.9328 39.3661 46.719 39.6768C46.5054 39.9872 46.2031 40.2259 45.8517 40.3617C45.8514 40.3618 45.8511 40.3619 45.8508 40.362L30.2502 46.3964C29.8164 46.5637 29.336 46.5637 28.9023 46.3964L13.3016 40.362C13.3015 40.362 13.3018 40.3621 13.3016 40.362C13.3015 40.362 13.3009 40.3617 13.3007 40.3617C12.9493 40.2259 12.647 39.9872 12.4334 39.6768C12.2196 39.3661 12.1046 38.9981 12.1035 38.621L12.1035 38.6173V29.519C12.1035 28.8298 12.6623 28.271 13.3516 28.271Z" fill="#EBEBEB"/>
<path fill-rule="evenodd" clip-rule="evenodd" d="M44.4395 19.7839C44.8052 19.6511 45.2032 19.6354 45.5783 19.7392C45.9542 19.8433 46.2882 20.0621 46.5337 20.3652L46.539 20.3718L51.2048 26.2135L51.2151 26.2271C51.3909 26.46 51.5098 26.7307 51.5624 27.0178C51.615 27.3048 51.5998 27.6001 51.5179 27.8802C51.4361 28.1603 51.2899 28.4173 51.0911 28.6309C50.8922 28.8444 50.6462 29.0085 50.3726 29.1101L50.3645 29.1131L35.7562 34.3072C35.7557 34.3074 35.7551 34.3076 35.7545 34.3078C35.3867 34.4389 34.9871 34.4517 34.6116 34.3444C34.2356 34.237 33.9026 34.0145 33.6595 33.7081L33.6551 33.7026L27.5293 25.8923L44.4369 19.7849C44.4378 19.7846 44.4387 19.7843 44.4395 19.7839ZM44.8703 22.2823L31.6233 27.0675L35.3399 31.806L48.6867 27.0605L44.8703 22.2823ZM45.2928 22.1297C45.2915 22.1301 45.2902 22.1306 45.2889 22.1311L45.2928 22.1297Z" fill="#EBEBEB"/>
<path fill-rule="evenodd" clip-rule="evenodd" d="M30.4707 14.0835C30.4717 14.0839 30.4727 14.0843 30.4738 14.0846L45.4449 19.599C46.0917 19.8372 46.4229 20.5547 46.1847 21.2015C45.9465 21.8483 45.229 22.1795 44.5822 21.9413L29.6056 16.4249L29.6001 16.4229L14.1612 22.1828C13.5154 22.4238 12.7966 22.0955 12.5556 21.4497C12.3147 20.8039 12.6429 20.0851 13.2887 19.8442L28.7265 14.0846C29.2889 13.8745 29.9081 13.8741 30.4707 14.0835Z" fill="#EBEBEB"/>
</svg>
