<svg width="38" height="30" viewBox="0 0 38 30" fill="none" xmlns="http://www.w3.org/2000/svg">
<path d="M38 1.97363C37.7625 3.56902 37.5396 5.16719 37.2847 6.75979C36.7806 9.90463 36.2634 13.0481 35.7432 16.1915C35.1488 19.7874 34.5486 23.3833 33.9381 26.9778C33.8478 27.5096 33.7473 28.0539 33.5447 28.5523C33.0683 29.7231 32.1039 30.1853 30.8174 29.9333C29.7029 29.7147 28.6874 29.2567 27.7549 28.6595C24.71 26.7063 21.6811 24.7295 18.6536 22.754C18.2223 22.4728 17.8144 22.154 17.4137 21.8325C16.2934 20.9359 16.2482 19.9085 17.3045 18.9466C18.4744 17.8816 19.6778 16.8486 20.8462 15.7808C23.0666 13.7525 25.284 11.7186 27.4767 9.661C27.8846 9.27817 28.1993 8.7937 28.4936 8.32177C28.6072 8.13801 28.5475 7.85679 28.5665 7.61874C28.3188 7.6076 28.0332 7.51572 27.8322 7.60203C27.1197 7.9097 26.3971 8.22293 25.7488 8.635C21.2323 11.5125 16.7144 14.3901 12.2417 17.3275C10.9392 18.1823 9.56969 18.4537 8.10403 18.1238C6.45189 17.7507 4.83762 17.23 3.21024 16.7581C2.44536 16.5354 1.69214 16.2764 0.934538 16.0328C-0.0649079 15.7112 -0.327153 14.7395 0.463954 14.0908C0.918512 13.7177 1.4634 13.41 2.01994 13.1901C12.8565 8.89394 23.6989 4.61033 34.5471 0.342044C35.0599 0.140184 35.6413 0.0246367 36.1963 0.00236253C37.2949 -0.0421858 37.898 0.545296 37.9534 1.59357C37.9607 1.71887 37.9548 1.84416 37.9548 1.96945C37.9679 1.96945 37.984 1.97224 38 1.97363Z" fill="#474747"/>
</svg>
