<svg width="43" height="43" viewBox="0 0 43 43" fill="none" xmlns="http://www.w3.org/2000/svg">
<g id="Group 162">
<g id="Rectangle 149">
<path fill-rule="evenodd" clip-rule="evenodd" d="M16.4862 22.5561L3 5H13.682L22.0069 15.8509L30.9008 5.04886H36.7839L24.8514 19.5585L39 38H28.3499L19.3357 26.2655L9.71214 37.9675H3.79716L16.4862 22.5561ZM29.9022 34.7472L9.54985 8.25284H12.1285L22.4211 21.5202L32.4552 34.7472H29.9022Z" fill="#D9D9D9"/>
<path fill-rule="evenodd" clip-rule="evenodd" d="M16.4862 22.5561L3 5H13.682L22.0069 15.8509L30.9008 5.04886H36.7839L24.8514 19.5585L39 38H28.3499L19.3357 26.2655L9.71214 37.9675H3.79716L16.4862 22.5561ZM29.9022 34.7472L9.54985 8.25284H12.1285L22.4211 21.5202L32.4552 34.7472H29.9022Z" fill="#D9D9D9"/>
<path fill-rule="evenodd" clip-rule="evenodd" d="M16.4862 22.5561L3 5H13.682L22.0069 15.8509L30.9008 5.04886H36.7839L24.8514 19.5585L39 38H28.3499L19.3357 26.2655L9.71214 37.9675H3.79716L16.4862 22.5561ZM29.9022 34.7472L9.54985 8.25284H12.1285L22.4211 21.5202L32.4552 34.7472H29.9022Z" fill="white"/>
</g>
</g>
</svg>
