<svg width="102" height="106" viewBox="0 0 102 106" fill="none" xmlns="http://www.w3.org/2000/svg">
<rect width="102" height="106" fill="#5B5B5B"/>
<g clip-path="url(#clip0_2_128)">
<rect width="1460" height="6347" transform="translate(-679 -517)" fill="white"/>
<path d="M-559 -232C-559 -245.807 -547.807 -257 -534 -257H636C649.807 -257 661 -245.807 661 -232V363H-534C-547.807 363 -559 351.807 -559 338V-232Z" fill="#CBCBCB"/>
<path d="M99.4128 63L85.1843 52.4196C77.7908 46.9217 67.6865 47.4899 60.9146 53.7844L41.0856 72.2156C34.3138 78.5101 24.2095 79.0783 16.8159 73.5804L2.5874 63M21.9525 103H80.0478C90.7428 103 99.4128 94.0457 99.4128 83V23C99.4128 11.9543 90.7428 3 80.0478 3H21.9525C11.2574 3 2.5874 11.9543 2.5874 23V83C2.5874 94.0457 11.2574 103 21.9525 103ZM46.1589 35.5C46.1589 42.4036 40.7401 48 34.0557 48C27.3713 48 21.9525 42.4036 21.9525 35.5C21.9525 28.5964 27.3713 23 34.0557 23C40.7401 23 46.1589 28.5964 46.1589 35.5Z" stroke="#319FD8" stroke-width="5" stroke-linecap="round"/>
</g>
<defs>
<clipPath id="clip0_2_128">
<rect width="1460" height="6347" fill="white" transform="translate(-679 -517)"/>
</clipPath>
</defs>
</svg>
