<svg width="45" height="33" viewBox="0 0 45 33" fill="none" xmlns="http://www.w3.org/2000/svg">
<g id="Youtuve 1" clip-path="url(#clip0_726_1699)">
<path id="Vector" fill-rule="evenodd" clip-rule="evenodd" d="M30.0057 16.0202L17.8558 22.5866L17.8451 12.471V9.39848L23.3255 12.3774L30.0057 16.0202ZM44.5447 7.11535C44.5447 7.11535 44.1001 3.87897 42.7555 2.45122C41.0493 0.5894 39.1261 0.578761 38.2474 0.465988C31.9502 0 22.5106 0 22.5106 0H22.4894C22.4894 0 13.0392 0 6.74192 0.465988C5.86328 0.580889 3.95069 0.5894 2.23383 2.45122C0.889278 3.87897 0.455276 7.11535 0.455276 7.11535C0.455276 7.11535 0 10.9113 0 14.7052V18.2629C0 22.0695 0.455276 25.8634 0.455276 25.8634C0.455276 25.8634 0.889278 29.0997 2.23383 30.5169C3.95069 32.3893 6.20367 32.3276 7.19719 32.5234C10.8054 32.8851 22.5 33 22.5 33C22.5 33 31.9502 32.9787 38.2474 32.5042C39.1261 32.4 41.0493 32.3914 42.7555 30.519C44.1107 29.0912 44.5447 25.8655 44.5447 25.8655C44.5447 25.8655 45 22.0695 45 18.265V14.7073C45 10.9113 44.5447 7.11535 44.5447 7.11535Z" fill="white"/>
</g>
<defs>
<clipPath id="clip0_726_1699">
<rect width="45" height="33" fill="white"/>
</clipPath>
</defs>
</svg>
